ISO-10303-21;
HEADER;
/* Generated by software containing ST-Developer
 * from STEP Tools, Inc. (www.steptools.com) 
 */
/* OPTION: using custom renumber hook */

FILE_DESCRIPTION(
/* description */ ('STEP AP242 Edition 2',
'CAx-IF Rec.Pracs.---Representation and Presentation of Product Manufa
cturing Information (PMI)---4.0---2014-10-13',
'CAx-IF Rec.Pracs.---3D Tessellated Geometry---0.4---2014-09-14','2;1',
'CAx-IF Rec.Pracs.---User Defined Attributes---1.5---2016-08-15'),
/* implementation_level */ '2;1');

FILE_NAME(
/* name */ 'Base - Base',
/* time_stamp */ '2026-08-24T17:00:41Z',
/* author */ (''),
/* organization */ (''),
/* preprocessor_version */ 'ST-DEVELOPER v20',
/* originating_system */ 'ONSHAPE BY PTC INC, 1.219',
/* authorisation */ '  ');

FILE_SCHEMA (('AP242_MANAGED_MODEL_BASED_3D_ENGINEERING_MIM_LF { 1 0 10303 442 3 1 4 }'));
ENDSEC;

DATA;
#10=SHAPE_REPRESENTATION_RELATIONSHIP('','',#363,#11);
#11=ADVANCED_BREP_SHAPE_REPRESENTATION('',(#361),#577);
#12=CYLINDRICAL_SURFACE('',#387,0.00235);
#13=CYLINDRICAL_SURFACE('',#388,0.00235);
#14=CYLINDRICAL_SURFACE('',#389,0.00235);
#15=CYLINDRICAL_SURFACE('',#390,0.00235);
#16=CIRCLE('',#375,0.00235);
#17=CIRCLE('',#376,0.00235);
#18=CIRCLE('',#377,0.00235);
#19=CIRCLE('',#378,0.00235);
#20=CIRCLE('',#380,0.00235);
#21=CIRCLE('',#381,0.00235);
#22=CIRCLE('',#382,0.00235);
#23=CIRCLE('',#383,0.00235);
#24=ORIENTED_EDGE('',*,*,#112,.F.);
#25=ORIENTED_EDGE('',*,*,#113,.F.);
#26=ORIENTED_EDGE('',*,*,#114,.T.);
#27=ORIENTED_EDGE('',*,*,#115,.F.);
#28=ORIENTED_EDGE('',*,*,#116,.T.);
#29=ORIENTED_EDGE('',*,*,#117,.T.);
#30=ORIENTED_EDGE('',*,*,#118,.F.);
#31=ORIENTED_EDGE('',*,*,#119,.F.);
#32=ORIENTED_EDGE('',*,*,#120,.T.);
#33=ORIENTED_EDGE('',*,*,#121,.T.);
#34=ORIENTED_EDGE('',*,*,#116,.F.);
#35=ORIENTED_EDGE('',*,*,#122,.F.);
#36=ORIENTED_EDGE('',*,*,#123,.F.);
#37=ORIENTED_EDGE('',*,*,#124,.T.);
#38=ORIENTED_EDGE('',*,*,#125,.T.);
#39=ORIENTED_EDGE('',*,*,#118,.T.);
#40=ORIENTED_EDGE('',*,*,#126,.F.);
#41=ORIENTED_EDGE('',*,*,#127,.T.);
#42=ORIENTED_EDGE('',*,*,#128,.T.);
#43=ORIENTED_EDGE('',*,*,#129,.F.);
#44=ORIENTED_EDGE('',*,*,#130,.F.);
#45=ORIENTED_EDGE('',*,*,#131,.F.);
#46=ORIENTED_EDGE('',*,*,#132,.T.);
#47=ORIENTED_EDGE('',*,*,#133,.F.);
#48=ORIENTED_EDGE('',*,*,#134,.T.);
#49=ORIENTED_EDGE('',*,*,#135,.T.);
#50=ORIENTED_EDGE('',*,*,#128,.F.);
#51=ORIENTED_EDGE('',*,*,#136,.F.);
#52=ORIENTED_EDGE('',*,*,#134,.F.);
#53=ORIENTED_EDGE('',*,*,#137,.F.);
#54=ORIENTED_EDGE('',*,*,#138,.T.);
#55=ORIENTED_EDGE('',*,*,#139,.T.);
#56=ORIENTED_EDGE('',*,*,#140,.T.);
#57=ORIENTED_EDGE('',*,*,#126,.T.);
#58=ORIENTED_EDGE('',*,*,#141,.F.);
#59=ORIENTED_EDGE('',*,*,#138,.F.);
#60=ORIENTED_EDGE('',*,*,#142,.F.);
#61=ORIENTED_EDGE('',*,*,#120,.F.);
#62=ORIENTED_EDGE('',*,*,#143,.T.);
#63=ORIENTED_EDGE('',*,*,#113,.T.);
#64=ORIENTED_EDGE('',*,*,#144,.F.);
#65=ORIENTED_EDGE('',*,*,#145,.F.);
#66=ORIENTED_EDGE('',*,*,#146,.F.);
#67=ORIENTED_EDGE('',*,*,#147,.F.);
#68=ORIENTED_EDGE('',*,*,#139,.F.);
#69=ORIENTED_EDGE('',*,*,#141,.T.);
#70=ORIENTED_EDGE('',*,*,#129,.T.);
#71=ORIENTED_EDGE('',*,*,#135,.F.);
#72=ORIENTED_EDGE('',*,*,#148,.T.);
#73=ORIENTED_EDGE('',*,*,#149,.T.);
#74=ORIENTED_EDGE('',*,*,#150,.T.);
#75=ORIENTED_EDGE('',*,*,#151,.T.);
#76=ORIENTED_EDGE('',*,*,#133,.T.);
#77=ORIENTED_EDGE('',*,*,#152,.T.);
#78=ORIENTED_EDGE('',*,*,#114,.F.);
#79=ORIENTED_EDGE('',*,*,#143,.F.);
#80=ORIENTED_EDGE('',*,*,#122,.T.);
#81=ORIENTED_EDGE('',*,*,#119,.T.);
#82=ORIENTED_EDGE('',*,*,#125,.F.);
#83=ORIENTED_EDGE('',*,*,#153,.F.);
#84=ORIENTED_EDGE('',*,*,#136,.T.);
#85=ORIENTED_EDGE('',*,*,#127,.F.);
#86=ORIENTED_EDGE('',*,*,#140,.F.);
#87=ORIENTED_EDGE('',*,*,#137,.T.);
#88=ORIENTED_EDGE('',*,*,#130,.T.);
#89=ORIENTED_EDGE('',*,*,#153,.T.);
#90=ORIENTED_EDGE('',*,*,#124,.F.);
#91=ORIENTED_EDGE('',*,*,#154,.F.);
#92=ORIENTED_EDGE('',*,*,#115,.T.);
#93=ORIENTED_EDGE('',*,*,#152,.F.);
#94=ORIENTED_EDGE('',*,*,#132,.F.);
#95=ORIENTED_EDGE('',*,*,#155,.T.);
#96=ORIENTED_EDGE('',*,*,#155,.F.);
#97=ORIENTED_EDGE('',*,*,#131,.T.);
#98=ORIENTED_EDGE('',*,*,#154,.T.);
#99=ORIENTED_EDGE('',*,*,#123,.T.);
#100=ORIENTED_EDGE('',*,*,#117,.F.);
#101=ORIENTED_EDGE('',*,*,#121,.F.);
#102=ORIENTED_EDGE('',*,*,#142,.T.);
#103=ORIENTED_EDGE('',*,*,#112,.T.);
#104=ORIENTED_EDGE('',*,*,#147,.T.);
#105=ORIENTED_EDGE('',*,*,#151,.F.);
#106=ORIENTED_EDGE('',*,*,#146,.T.);
#107=ORIENTED_EDGE('',*,*,#150,.F.);
#108=ORIENTED_EDGE('',*,*,#145,.T.);
#109=ORIENTED_EDGE('',*,*,#149,.F.);
#110=ORIENTED_EDGE('',*,*,#144,.T.);
#111=ORIENTED_EDGE('',*,*,#148,.F.);
#112=EDGE_CURVE('',#156,#157,#188,.F.);
#113=EDGE_CURVE('',#158,#156,#189,.T.);
#114=EDGE_CURVE('',#158,#159,#190,.F.);
#115=EDGE_CURVE('',#157,#159,#191,.T.);
#116=EDGE_CURVE('',#160,#161,#192,.T.);
#117=EDGE_CURVE('',#161,#162,#193,.T.);
#118=EDGE_CURVE('',#163,#162,#194,.T.);
#119=EDGE_CURVE('',#160,#163,#195,.F.);
#120=EDGE_CURVE('',#164,#165,#196,.T.);
#121=EDGE_CURVE('',#165,#161,#197,.F.);
#122=EDGE_CURVE('',#164,#160,#198,.F.);
#123=EDGE_CURVE('',#166,#162,#199,.F.);
#124=EDGE_CURVE('',#166,#167,#200,.T.);
#125=EDGE_CURVE('',#167,#163,#201,.F.);
#126=EDGE_CURVE('',#168,#169,#202,.T.);
#127=EDGE_CURVE('',#168,#170,#203,.F.);
#128=EDGE_CURVE('',#170,#171,#204,.T.);
#129=EDGE_CURVE('',#169,#171,#205,.T.);
#130=EDGE_CURVE('',#172,#173,#206,.T.);
#131=EDGE_CURVE('',#174,#172,#207,.F.);
#132=EDGE_CURVE('',#174,#175,#208,.T.);
#133=EDGE_CURVE('',#176,#175,#209,.F.);
#134=EDGE_CURVE('',#176,#177,#210,.T.);
#135=EDGE_CURVE('',#177,#171,#211,.T.);
#136=EDGE_CURVE('',#173,#170,#212,.F.);
#137=EDGE_CURVE('',#178,#176,#213,.F.);
#138=EDGE_CURVE('',#178,#179,#214,.T.);
#139=EDGE_CURVE('',#179,#177,#215,.T.);
#140=EDGE_CURVE('',#178,#168,#216,.F.);
#141=EDGE_CURVE('',#179,#169,#217,.T.);
#142=EDGE_CURVE('',#165,#156,#218,.T.);
#143=EDGE_CURVE('',#164,#158,#219,.F.);
#144=EDGE_CURVE('',#180,#180,#16,.T.);
#145=EDGE_CURVE('',#181,#181,#17,.T.);
#146=EDGE_CURVE('',#182,#182,#18,.T.);
#147=EDGE_CURVE('',#183,#183,#19,.T.);
#148=EDGE_CURVE('',#184,#184,#20,.T.);
#149=EDGE_CURVE('',#185,#185,#21,.T.);
#150=EDGE_CURVE('',#186,#186,#22,.T.);
#151=EDGE_CURVE('',#187,#187,#23,.T.);
#152=EDGE_CURVE('',#175,#159,#220,.T.);
#153=EDGE_CURVE('',#173,#167,#221,.T.);
#154=EDGE_CURVE('',#172,#166,#222,.F.);
#155=EDGE_CURVE('',#174,#157,#223,.F.);
#156=VERTEX_POINT('',#484);
#157=VERTEX_POINT('',#485);
#158=VERTEX_POINT('',#487);
#159=VERTEX_POINT('',#489);
#160=VERTEX_POINT('',#493);
#161=VERTEX_POINT('',#494);
#162=VERTEX_POINT('',#496);
#163=VERTEX_POINT('',#498);
#164=VERTEX_POINT('',#502);
#165=VERTEX_POINT('',#503);
#166=VERTEX_POINT('',#508);
#167=VERTEX_POINT('',#510);
#168=VERTEX_POINT('',#514);
#169=VERTEX_POINT('',#515);
#170=VERTEX_POINT('',#517);
#171=VERTEX_POINT('',#519);
#172=VERTEX_POINT('',#523);
#173=VERTEX_POINT('',#524);
#174=VERTEX_POINT('',#526);
#175=VERTEX_POINT('',#528);
#176=VERTEX_POINT('',#530);
#177=VERTEX_POINT('',#532);
#178=VERTEX_POINT('',#537);
#179=VERTEX_POINT('',#539);
#180=VERTEX_POINT('',#549);
#181=VERTEX_POINT('',#551);
#182=VERTEX_POINT('',#553);
#183=VERTEX_POINT('',#555);
#184=VERTEX_POINT('',#558);
#185=VERTEX_POINT('',#560);
#186=VERTEX_POINT('',#562);
#187=VERTEX_POINT('',#564);
#188=LINE('',#483,#224);
#189=LINE('',#486,#225);
#190=LINE('',#488,#226);
#191=LINE('',#490,#227);
#192=LINE('',#492,#228);
#193=LINE('',#495,#229);
#194=LINE('',#497,#230);
#195=LINE('',#499,#231);
#196=LINE('',#501,#232);
#197=LINE('',#504,#233);
#198=LINE('',#505,#234);
#199=LINE('',#507,#235);
#200=LINE('',#509,#236);
#201=LINE('',#511,#237);
#202=LINE('',#513,#238);
#203=LINE('',#516,#239);
#204=LINE('',#518,#240);
#205=LINE('',#520,#241);
#206=LINE('',#522,#242);
#207=LINE('',#525,#243);
#208=LINE('',#527,#244);
#209=LINE('',#529,#245);
#210=LINE('',#531,#246);
#211=LINE('',#533,#247);
#212=LINE('',#534,#248);
#213=LINE('',#536,#249);
#214=LINE('',#538,#250);
#215=LINE('',#540,#251);
#216=LINE('',#542,#252);
#217=LINE('',#543,#253);
#218=LINE('',#545,#254);
#219=LINE('',#546,#255);
#220=LINE('',#565,#256);
#221=LINE('',#566,#257);
#222=LINE('',#568,#258);
#223=LINE('',#570,#259);
#224=VECTOR('',#395,1.);
#225=VECTOR('',#396,1.);
#226=VECTOR('',#397,1.);
#227=VECTOR('',#398,1.);
#228=VECTOR('',#401,1.);
#229=VECTOR('',#402,1.);
#230=VECTOR('',#403,1.);
#231=VECTOR('',#404,1.);
#232=VECTOR('',#407,1.);
#233=VECTOR('',#408,1.);
#234=VECTOR('',#409,1.);
#235=VECTOR('',#412,1.);
#236=VECTOR('',#413,1.);
#237=VECTOR('',#414,1.);
#238=VECTOR('',#417,1.);
#239=VECTOR('',#418,1.);
#240=VECTOR('',#419,1.);
#241=VECTOR('',#420,1.);
#242=VECTOR('',#423,1.);
#243=VECTOR('',#424,1.);
#244=VECTOR('',#425,1.);
#245=VECTOR('',#426,1.);
#246=VECTOR('',#427,1.);
#247=VECTOR('',#428,1.);
#248=VECTOR('',#429,1.);
#249=VECTOR('',#432,1.);
#250=VECTOR('',#433,1.);
#251=VECTOR('',#434,1.);
#252=VECTOR('',#437,1.);
#253=VECTOR('',#438,1.);
#254=VECTOR('',#441,1.);
#255=VECTOR('',#442,1.);
#256=VECTOR('',#463,1.);
#257=VECTOR('',#464,1.);
#258=VECTOR('',#467,1.);
#259=VECTOR('',#470,1.);
#260=EDGE_LOOP('',(#24,#25,#26,#27));
#261=EDGE_LOOP('',(#28,#29,#30,#31));
#262=EDGE_LOOP('',(#32,#33,#34,#35));
#263=EDGE_LOOP('',(#36,#37,#38,#39));
#264=EDGE_LOOP('',(#40,#41,#42,#43));
#265=EDGE_LOOP('',(#44,#45,#46,#47,#48,#49,#50,#51));
#266=EDGE_LOOP('',(#52,#53,#54,#55));
#267=EDGE_LOOP('',(#56,#57,#58,#59));
#268=EDGE_LOOP('',(#60,#61,#62,#63));
#269=EDGE_LOOP('',(#64));
#270=EDGE_LOOP('',(#65));
#271=EDGE_LOOP('',(#66));
#272=EDGE_LOOP('',(#67));
#273=EDGE_LOOP('',(#68,#69,#70,#71));
#274=EDGE_LOOP('',(#72));
#275=EDGE_LOOP('',(#73));
#276=EDGE_LOOP('',(#74));
#277=EDGE_LOOP('',(#75));
#278=EDGE_LOOP('',(#76,#77,#78,#79,#80,#81,#82,#83,#84,#85,#86,#87));
#279=EDGE_LOOP('',(#88,#89,#90,#91));
#280=EDGE_LOOP('',(#92,#93,#94,#95));
#281=EDGE_LOOP('',(#96,#97,#98,#99,#100,#101,#102,#103));
#282=EDGE_LOOP('',(#104));
#283=EDGE_LOOP('',(#105));
#284=EDGE_LOOP('',(#106));
#285=EDGE_LOOP('',(#107));
#286=EDGE_LOOP('',(#108));
#287=EDGE_LOOP('',(#109));
#288=EDGE_LOOP('',(#110));
#289=EDGE_LOOP('',(#111));
#290=FACE_BOUND('',#260,.T.);
#291=FACE_BOUND('',#261,.T.);
#292=FACE_BOUND('',#262,.T.);
#293=FACE_BOUND('',#263,.T.);
#294=FACE_BOUND('',#264,.T.);
#295=FACE_BOUND('',#265,.T.);
#296=FACE_BOUND('',#266,.T.);
#297=FACE_BOUND('',#267,.T.);
#298=FACE_BOUND('',#268,.T.);
#299=FACE_BOUND('',#269,.T.);
#300=FACE_BOUND('',#270,.T.);
#301=FACE_BOUND('',#271,.T.);
#302=FACE_BOUND('',#272,.T.);
#303=FACE_BOUND('',#273,.T.);
#304=FACE_BOUND('',#274,.T.);
#305=FACE_BOUND('',#275,.T.);
#306=FACE_BOUND('',#276,.T.);
#307=FACE_BOUND('',#277,.T.);
#308=FACE_BOUND('',#278,.T.);
#309=FACE_BOUND('',#279,.T.);
#310=FACE_BOUND('',#280,.T.);
#311=FACE_BOUND('',#281,.T.);
#312=FACE_BOUND('',#282,.T.);
#313=FACE_BOUND('',#283,.T.);
#314=FACE_BOUND('',#284,.T.);
#315=FACE_BOUND('',#285,.T.);
#316=FACE_BOUND('',#286,.T.);
#317=FACE_BOUND('',#287,.T.);
#318=FACE_BOUND('',#288,.T.);
#319=FACE_BOUND('',#289,.T.);
#320=PLANE('',#365);
#321=PLANE('',#366);
#322=PLANE('',#367);
#323=PLANE('',#368);
#324=PLANE('',#369);
#325=PLANE('',#370);
#326=PLANE('',#371);
#327=PLANE('',#372);
#328=PLANE('',#373);
#329=PLANE('',#374);
#330=PLANE('',#379);
#331=PLANE('',#384);
#332=PLANE('',#385);
#333=PLANE('',#386);
#334=ADVANCED_FACE('',(#290),#320,.T.);
#335=ADVANCED_FACE('',(#291),#321,.F.);
#336=ADVANCED_FACE('',(#292),#322,.F.);
#337=ADVANCED_FACE('',(#293),#323,.T.);
#338=ADVANCED_FACE('',(#294),#324,.T.);
#339=ADVANCED_FACE('',(#295),#325,.F.);
#340=ADVANCED_FACE('',(#296),#326,.F.);
#341=ADVANCED_FACE('',(#297),#327,.T.);
#342=ADVANCED_FACE('',(#298),#328,.T.);
#343=ADVANCED_FACE('',(#299,#300,#301,#302,#303),#329,.T.);
#344=ADVANCED_FACE('',(#304,#305,#306,#307,#308),#330,.F.);
#345=ADVANCED_FACE('',(#309),#331,.F.);
#346=ADVANCED_FACE('',(#310),#332,.T.);
#347=ADVANCED_FACE('',(#311),#333,.T.);
#348=ADVANCED_FACE('',(#312,#313),#12,.F.);
#349=ADVANCED_FACE('',(#314,#315),#13,.F.);
#350=ADVANCED_FACE('',(#316,#317),#14,.F.);
#351=ADVANCED_FACE('',(#318,#319),#15,.F.);
#352=CLOSED_SHELL('',(#334,#335,#336,#337,#338,#339,#340,#341,#342,#343,
#344,#345,#346,#347,#348,#349,#350,#351));
#353=STYLED_ITEM('',(#354),#361);
#354=PRESENTATION_STYLE_ASSIGNMENT((#355));
#355=SURFACE_STYLE_USAGE(.BOTH.,#356);
#356=SURFACE_SIDE_STYLE('',(#357));
#357=SURFACE_STYLE_FILL_AREA(#358);
#358=FILL_AREA_STYLE('',(#359));
#359=FILL_AREA_STYLE_COLOUR('',#360);
#360=COLOUR_RGB('',0.647058823529412,0.647058823529412,0.647058823529412);
#361=MANIFOLD_SOLID_BREP('Base',#352);
#362=SHAPE_DEFINITION_REPRESENTATION(#582,#363);
#363=SHAPE_REPRESENTATION('Base',(#364),#577);
#364=AXIS2_PLACEMENT_3D('',#481,#391,#392);
#365=AXIS2_PLACEMENT_3D('',#482,#393,#394);
#366=AXIS2_PLACEMENT_3D('',#491,#399,#400);
#367=AXIS2_PLACEMENT_3D('',#500,#405,#406);
#368=AXIS2_PLACEMENT_3D('',#506,#410,#411);
#369=AXIS2_PLACEMENT_3D('',#512,#415,#416);
#370=AXIS2_PLACEMENT_3D('',#521,#421,#422);
#371=AXIS2_PLACEMENT_3D('',#535,#430,#431);
#372=AXIS2_PLACEMENT_3D('',#541,#435,#436);
#373=AXIS2_PLACEMENT_3D('',#544,#439,#440);
#374=AXIS2_PLACEMENT_3D('',#547,#443,#444);
#375=AXIS2_PLACEMENT_3D('',#548,#445,#446);
#376=AXIS2_PLACEMENT_3D('',#550,#447,#448);
#377=AXIS2_PLACEMENT_3D('',#552,#449,#450);
#378=AXIS2_PLACEMENT_3D('',#554,#451,#452);
#379=AXIS2_PLACEMENT_3D('',#556,#453,#454);
#380=AXIS2_PLACEMENT_3D('',#557,#455,#456);
#381=AXIS2_PLACEMENT_3D('',#559,#457,#458);
#382=AXIS2_PLACEMENT_3D('',#561,#459,#460);
#383=AXIS2_PLACEMENT_3D('',#563,#461,#462);
#384=AXIS2_PLACEMENT_3D('',#567,#465,#466);
#385=AXIS2_PLACEMENT_3D('',#569,#468,#469);
#386=AXIS2_PLACEMENT_3D('',#571,#471,#472);
#387=AXIS2_PLACEMENT_3D('',#572,#473,#474);
#388=AXIS2_PLACEMENT_3D('',#573,#475,#476);
#389=AXIS2_PLACEMENT_3D('',#574,#477,#478);
#390=AXIS2_PLACEMENT_3D('',#575,#479,#480);
#391=DIRECTION('',(0.,0.,1.));
#392=DIRECTION('',(1.,0.,0.));
#393=DIRECTION('',(1.19636101791504E-16,-1.,0.));
#394=DIRECTION('',(-1.,-1.19636101791504E-16,0.));
#395=DIRECTION('',(1.,0.,0.));
#396=DIRECTION('',(0.,0.,-1.));
#397=DIRECTION('',(1.,0.,0.));
#398=DIRECTION('',(0.,0.,1.));
#399=DIRECTION('',(-1.,0.,0.));
#400=DIRECTION('',(0.,1.,0.));
#401=DIRECTION('',(0.,0.,-1.));
#402=DIRECTION('',(0.,1.,0.));
#403=DIRECTION('',(0.,0.,-1.));
#404=DIRECTION('',(0.,-1.,0.));
#405=DIRECTION('',(1.19636101791504E-16,-1.,0.));
#406=DIRECTION('',(-1.,-1.19636101791504E-16,0.));
#407=DIRECTION('',(0.,0.,-1.));
#408=DIRECTION('',(1.,0.,0.));
#409=DIRECTION('',(1.,0.,0.));
#410=DIRECTION('',(1.19636101791504E-16,-1.,0.));
#411=DIRECTION('',(-1.,-1.19636101791504E-16,0.));
#412=DIRECTION('',(1.,0.,0.));
#413=DIRECTION('',(0.,0.,1.));
#414=DIRECTION('',(1.,0.,0.));
#415=DIRECTION('',(-1.,0.,0.));
#416=DIRECTION('',(0.,1.,0.));
#417=DIRECTION('',(0.,0.,-1.));
#418=DIRECTION('',(0.,-1.,0.));
#419=DIRECTION('',(0.,0.,-1.));
#420=DIRECTION('',(0.,1.,0.));
#421=DIRECTION('',(0.,-1.,0.));
#422=DIRECTION('',(-1.,0.,0.));
#423=DIRECTION('',(0.,0.,1.));
#424=DIRECTION('',(1.,0.,0.));
#425=DIRECTION('',(0.,0.,1.));
#426=DIRECTION('',(1.,0.,0.));
#427=DIRECTION('',(0.,0.,-1.));
#428=DIRECTION('',(-1.,0.,0.));
#429=DIRECTION('',(1.,0.,0.));
#430=DIRECTION('',(-1.,0.,0.));
#431=DIRECTION('',(0.,1.,0.));
#432=DIRECTION('',(0.,-1.,0.));
#433=DIRECTION('',(0.,0.,-1.));
#434=DIRECTION('',(0.,1.,0.));
#435=DIRECTION('',(0.,-1.,0.));
#436=DIRECTION('',(-1.,0.,0.));
#437=DIRECTION('',(1.,0.,0.));
#438=DIRECTION('',(-1.,0.,0.));
#439=DIRECTION('',(-1.,0.,0.));
#440=DIRECTION('',(0.,1.,0.));
#441=DIRECTION('',(0.,1.,0.));
#442=DIRECTION('',(0.,-1.,0.));
#443=DIRECTION('',(0.,0.,-1.));
#444=DIRECTION('',(1.,0.,0.));
#445=DIRECTION('',(0.,0.,-1.));
#446=DIRECTION('',(-1.,0.,0.));
#447=DIRECTION('',(0.,0.,-1.));
#448=DIRECTION('',(-1.,0.,0.));
#449=DIRECTION('',(0.,0.,-1.));
#450=DIRECTION('',(-1.,0.,0.));
#451=DIRECTION('',(0.,0.,-1.));
#452=DIRECTION('',(-1.,0.,0.));
#453=DIRECTION('',(0.,0.,-1.));
#454=DIRECTION('',(1.,0.,0.));
#455=DIRECTION('',(0.,0.,-1.));
#456=DIRECTION('',(-1.,0.,0.));
#457=DIRECTION('',(0.,0.,-1.));
#458=DIRECTION('',(-1.,0.,0.));
#459=DIRECTION('',(0.,0.,-1.));
#460=DIRECTION('',(-1.,0.,0.));
#461=DIRECTION('',(0.,0.,-1.));
#462=DIRECTION('',(-1.,0.,0.));
#463=DIRECTION('',(0.,-1.,0.));
#464=DIRECTION('',(0.,-1.,0.));
#465=DIRECTION('',(-1.,0.,0.));
#466=DIRECTION('',(0.,-1.,0.));
#467=DIRECTION('',(0.,1.,0.));
#468=DIRECTION('',(-1.,0.,0.));
#469=DIRECTION('',(0.,-1.,0.));
#470=DIRECTION('',(0.,1.,0.));
#471=DIRECTION('',(0.,0.,1.));
#472=DIRECTION('',(1.,0.,0.));
#473=DIRECTION('',(0.,0.,1.));
#474=DIRECTION('',(1.,0.,0.));
#475=DIRECTION('',(0.,0.,1.));
#476=DIRECTION('',(1.,0.,0.));
#477=DIRECTION('',(0.,0.,1.));
#478=DIRECTION('',(1.,0.,0.));
#479=DIRECTION('',(0.,0.,1.));
#480=DIRECTION('',(1.,0.,0.));
#481=CARTESIAN_POINT('',(0.,0.,0.));
#482=CARTESIAN_POINT('',(0.,0.0195,0.));
#483=CARTESIAN_POINT('',(0.,0.0195,0.003));
#484=CARTESIAN_POINT('',(0.029,0.0195,0.003));
#485=CARTESIAN_POINT('',(0.00831567775458098,0.0195,0.003));
#486=CARTESIAN_POINT('',(0.029,0.0195,0.));
#487=CARTESIAN_POINT('',(0.029,0.0195,0.013));
#488=CARTESIAN_POINT('',(0.,0.0195,0.013));
#489=CARTESIAN_POINT('',(0.00831567775458098,0.0195,0.013));
#490=CARTESIAN_POINT('',(0.00831567775458098,0.0195,0.013));
#491=CARTESIAN_POINT('',(-0.029,3.46944695195361E-18,0.));
#492=CARTESIAN_POINT('',(-0.029,-0.0195,0.));
#493=CARTESIAN_POINT('',(-0.029,-0.0195,0.013));
#494=CARTESIAN_POINT('',(-0.029,-0.0195,0.003));
#495=CARTESIAN_POINT('',(-0.029,3.46944695195361E-18,0.003));
#496=CARTESIAN_POINT('',(-0.029,0.0195,0.003));
#497=CARTESIAN_POINT('',(-0.029,0.0195,0.));
#498=CARTESIAN_POINT('',(-0.029,0.0195,0.013));
#499=CARTESIAN_POINT('',(-0.029,0.,0.013));
#500=CARTESIAN_POINT('',(0.,-0.0195,0.));
#501=CARTESIAN_POINT('',(0.029,-0.0195,0.));
#502=CARTESIAN_POINT('',(0.029,-0.0195,0.013));
#503=CARTESIAN_POINT('',(0.029,-0.0195,0.003));
#504=CARTESIAN_POINT('',(0.,-0.0195,0.003));
#505=CARTESIAN_POINT('',(0.,-0.0195,0.013));
#506=CARTESIAN_POINT('',(0.,0.0195,0.));
#507=CARTESIAN_POINT('',(0.,0.0195,0.003));
#508=CARTESIAN_POINT('',(-0.00831567775458098,0.0195,0.003));
#509=CARTESIAN_POINT('',(-0.00831567775458098,0.0195,0.013));
#510=CARTESIAN_POINT('',(-0.00831567775458098,0.0195,0.013));
#511=CARTESIAN_POINT('',(0.,0.0195,0.013));
#512=CARTESIAN_POINT('',(-0.039,0.,0.));
#513=CARTESIAN_POINT('',(-0.039,-0.0295,0.));
#514=CARTESIAN_POINT('',(-0.039,-0.0295,0.013));
#515=CARTESIAN_POINT('',(-0.039,-0.0295,0.));
#516=CARTESIAN_POINT('',(-0.039,0.,0.013));
#517=CARTESIAN_POINT('',(-0.039,0.0295,0.013));
#518=CARTESIAN_POINT('',(-0.039,0.0295,0.));
#519=CARTESIAN_POINT('',(-0.039,0.0295,0.));
#520=CARTESIAN_POINT('',(-0.039,0.,0.));
#521=CARTESIAN_POINT('',(0.,0.0295,0.));
#522=CARTESIAN_POINT('',(-0.00831567775458098,0.0295,0.013));
#523=CARTESIAN_POINT('',(-0.00831567775458098,0.0295,0.003));
#524=CARTESIAN_POINT('',(-0.00831567775458098,0.0295,0.013));
#525=CARTESIAN_POINT('',(0.,0.0295,0.003));
#526=CARTESIAN_POINT('',(0.00831567775458098,0.0295,0.003));
#527=CARTESIAN_POINT('',(0.00831567775458098,0.0295,0.013));
#528=CARTESIAN_POINT('',(0.00831567775458098,0.0295,0.013));
#529=CARTESIAN_POINT('',(0.,0.0295,0.013));
#530=CARTESIAN_POINT('',(0.039,0.0295,0.013));
#531=CARTESIAN_POINT('',(0.039,0.0295,0.));
#532=CARTESIAN_POINT('',(0.039,0.0295,0.));
#533=CARTESIAN_POINT('',(0.,0.0295,0.));
#534=CARTESIAN_POINT('',(0.,0.0295,0.013));
#535=CARTESIAN_POINT('',(0.039,0.,0.));
#536=CARTESIAN_POINT('',(0.039,0.,0.013));
#537=CARTESIAN_POINT('',(0.039,-0.0295,0.013));
#538=CARTESIAN_POINT('',(0.039,-0.0295,0.));
#539=CARTESIAN_POINT('',(0.039,-0.0295,0.));
#540=CARTESIAN_POINT('',(0.039,0.,0.));
#541=CARTESIAN_POINT('',(0.,-0.0295,0.));
#542=CARTESIAN_POINT('',(0.,-0.0295,0.013));
#543=CARTESIAN_POINT('',(0.,-0.0295,0.));
#544=CARTESIAN_POINT('',(0.029,3.46944695195361E-18,0.));
#545=CARTESIAN_POINT('',(0.029,3.46944695195361E-18,0.003));
#546=CARTESIAN_POINT('',(0.029,0.,0.013));
#547=CARTESIAN_POINT('',(0.,0.,0.));
#548=CARTESIAN_POINT('',(-0.0331168864023139,0.0241897818626596,0.));
#549=CARTESIAN_POINT('',(-0.0354668864023139,0.0241897818626596,0.));
#550=CARTESIAN_POINT('',(0.0331168864023139,-0.0241897818626596,0.));
#551=CARTESIAN_POINT('',(0.0307668864023139,-0.0241897818626596,0.));
#552=CARTESIAN_POINT('',(-0.0331168864023139,-0.0241897818626596,0.));
#553=CARTESIAN_POINT('',(-0.0354668864023139,-0.0241897818626596,0.));
#554=CARTESIAN_POINT('',(0.0331168864023139,0.0241897818626596,0.));
#555=CARTESIAN_POINT('',(0.0307668864023139,0.0241897818626596,0.));
#556=CARTESIAN_POINT('',(0.,0.,0.013));
#557=CARTESIAN_POINT('',(-0.0331168864023139,0.0241897818626596,0.013));
#558=CARTESIAN_POINT('',(-0.0354668864023139,0.0241897818626596,0.013));
#559=CARTESIAN_POINT('',(0.0331168864023139,-0.0241897818626596,0.013));
#560=CARTESIAN_POINT('',(0.0307668864023139,-0.0241897818626596,0.013));
#561=CARTESIAN_POINT('',(-0.0331168864023139,-0.0241897818626596,0.013));
#562=CARTESIAN_POINT('',(-0.0354668864023139,-0.0241897818626596,0.013));
#563=CARTESIAN_POINT('',(0.0331168864023139,0.0241897818626596,0.013));
#564=CARTESIAN_POINT('',(0.0307668864023139,0.0241897818626596,0.013));
#565=CARTESIAN_POINT('',(0.00831567775458098,0.0222716275602579,0.013));
#566=CARTESIAN_POINT('',(-0.00831567775458098,0.0222716275602579,0.013));
#567=CARTESIAN_POINT('',(-0.00831567775458098,0.0222716275602579,0.013));
#568=CARTESIAN_POINT('',(-0.00831567775458098,0.00213573881983757,0.003));
#569=CARTESIAN_POINT('',(0.00831567775458098,0.0222716275602579,0.013));
#570=CARTESIAN_POINT('',(0.00831567775458098,0.00213573881983757,0.003));
#571=CARTESIAN_POINT('',(0.,0.00213573881983757,0.003));
#572=CARTESIAN_POINT('',(0.0331168864023139,0.0241897818626596,0.0145));
#573=CARTESIAN_POINT('',(-0.0331168864023139,-0.0241897818626596,0.0145));
#574=CARTESIAN_POINT('',(0.0331168864023139,-0.0241897818626596,0.0145));
#575=CARTESIAN_POINT('',(-0.0331168864023139,0.0241897818626596,0.0145));
#576=MECHANICAL_DESIGN_GEOMETRIC_PRESENTATION_REPRESENTATION('',(#353),
#577);
#577=(
GEOMETRIC_REPRESENTATION_CONTEXT(3)
GLOBAL_UNCERTAINTY_ASSIGNED_CONTEXT((#578))
GLOBAL_UNIT_ASSIGNED_CONTEXT((#581,#580,#579))
REPRESENTATION_CONTEXT('Base','TOP_LEVEL_ASSEMBLY_PART')
);
#578=UNCERTAINTY_MEASURE_WITH_UNIT(LENGTH_MEASURE(1.E-8),#581,
'DISTANCE_ACCURACY_VALUE','Maximum Tolerance applied to model');
#579=(
NAMED_UNIT(*)
SI_UNIT($,.STERADIAN.)
SOLID_ANGLE_UNIT()
);
#580=(
NAMED_UNIT(*)
PLANE_ANGLE_UNIT()
SI_UNIT($,.RADIAN.)
);
#581=(
LENGTH_UNIT()
NAMED_UNIT(*)
SI_UNIT($,.METRE.)
);
#582=PRODUCT_DEFINITION_SHAPE('','',#583);
#583=PRODUCT_DEFINITION('','',#585,#584);
#584=PRODUCT_DEFINITION_CONTEXT('',#591,'design');
#585=PRODUCT_DEFINITION_FORMATION_WITH_SPECIFIED_SOURCE('','',#587,
 .NOT_KNOWN.);
#586=PRODUCT_RELATED_PRODUCT_CATEGORY('','',(#587));
#587=PRODUCT('Base','Base','Base',(#589));
#588=PRODUCT_CATEGORY('','');
#589=PRODUCT_CONTEXT('',#591,'mechanical');
#590=APPLICATION_PROTOCOL_DEFINITION('international standard',
'ap242_managed_model_based_3d_engineering',2020,#591);
#591=APPLICATION_CONTEXT('managed model based 3d engineering');
ENDSEC;
END-ISO-10303-21;
