ISO-10303-21;
HEADER;
/* Generated by software containing ST-Developer
 * from STEP Tools, Inc. (www.steptools.com) 
 */
/* OPTION: using custom renumber hook */

FILE_DESCRIPTION(
/* description */ ('STEP AP242 Edition 2',
'CAx-IF Rec.Pracs.---Representation and Presentation of Product Manufa
cturing Information (PMI)---4.0---2014-10-13',
'CAx-IF Rec.Pracs.---3D Tessellated Geometry---0.4---2014-09-14','2;1',
'CAx-IF Rec.Pracs.---User Defined Attributes---1.5---2016-08-15'),
/* implementation_level */ '2;1');

FILE_NAME(
/* name */ 'Base - Lid',
/* time_stamp */ '2026-08-24T17:01:03Z',
/* author */ (''),
/* organization */ (''),
/* preprocessor_version */ 'ST-DEVELOPER v20',
/* originating_system */ 'ONSHAPE BY PTC INC, 1.219',
/* authorisation */ '  ');

FILE_SCHEMA (('AP242_MANAGED_MODEL_BASED_3D_ENGINEERING_MIM_LF { 1 0 10303 442 3 1 4 }'));
ENDSEC;

DATA;
#10=SHAPE_REPRESENTATION_RELATIONSHIP('','',#1221,#11);
#11=ADVANCED_BREP_SHAPE_REPRESENTATION('',(#1219),#2027);
#12=CYLINDRICAL_SURFACE('',#1286,0.0005);
#13=CYLINDRICAL_SURFACE('',#1288,0.0005);
#14=CYLINDRICAL_SURFACE('',#1292,0.0005);
#15=CYLINDRICAL_SURFACE('',#1294,0.0005);
#16=CYLINDRICAL_SURFACE('',#1296,0.0005);
#17=CYLINDRICAL_SURFACE('',#1298,0.0005);
#18=CYLINDRICAL_SURFACE('',#1300,0.0005);
#19=CYLINDRICAL_SURFACE('',#1302,0.0005);
#20=CYLINDRICAL_SURFACE('',#1304,0.0005);
#21=CYLINDRICAL_SURFACE('',#1306,0.0005);
#22=CYLINDRICAL_SURFACE('',#1308,0.0005);
#23=CYLINDRICAL_SURFACE('',#1310,0.0005);
#24=CYLINDRICAL_SURFACE('',#1312,0.0005);
#25=CYLINDRICAL_SURFACE('',#1314,0.0005);
#26=CYLINDRICAL_SURFACE('',#1316,0.0005);
#27=CYLINDRICAL_SURFACE('',#1318,0.0005);
#28=CYLINDRICAL_SURFACE('',#1320,0.0005);
#29=CYLINDRICAL_SURFACE('',#1322,0.0005);
#30=CYLINDRICAL_SURFACE('',#1324,0.0005);
#31=CYLINDRICAL_SURFACE('',#1326,0.0005);
#32=CYLINDRICAL_SURFACE('',#1328,0.0005);
#33=CYLINDRICAL_SURFACE('',#1330,0.0005);
#34=CYLINDRICAL_SURFACE('',#1331,0.00235);
#35=CYLINDRICAL_SURFACE('',#1332,0.00235);
#36=CYLINDRICAL_SURFACE('',#1333,0.00235);
#37=CYLINDRICAL_SURFACE('',#1334,0.00235);
#38=CIRCLE('',#1226,0.00235);
#39=CIRCLE('',#1227,0.00235);
#40=CIRCLE('',#1228,0.00235);
#41=CIRCLE('',#1229,0.00235);
#42=CIRCLE('',#1230,0.0005);
#43=CIRCLE('',#1231,0.0005);
#44=CIRCLE('',#1232,0.0005);
#45=CIRCLE('',#1233,0.0005);
#46=CIRCLE('',#1234,0.0005);
#47=CIRCLE('',#1235,0.0005);
#48=CIRCLE('',#1236,0.0005);
#49=CIRCLE('',#1237,0.0005);
#50=CIRCLE('',#1238,0.0005);
#51=CIRCLE('',#1239,0.0005);
#52=CIRCLE('',#1240,0.0005);
#53=CIRCLE('',#1241,0.0005);
#54=CIRCLE('',#1242,0.0005);
#55=CIRCLE('',#1243,0.0005);
#56=CIRCLE('',#1244,0.0005);
#57=CIRCLE('',#1245,0.0005);
#58=CIRCLE('',#1246,0.0005);
#59=CIRCLE('',#1247,0.0005);
#60=CIRCLE('',#1248,0.0005);
#61=CIRCLE('',#1249,0.0005);
#62=CIRCLE('',#1250,0.0005);
#63=CIRCLE('',#1251,0.0005);
#64=CIRCLE('',#1257,0.00235);
#65=CIRCLE('',#1258,0.00235);
#66=CIRCLE('',#1259,0.00235);
#67=CIRCLE('',#1260,0.00235);
#68=CIRCLE('',#1261,0.0005);
#69=CIRCLE('',#1262,0.0005);
#70=CIRCLE('',#1263,0.0005);
#71=CIRCLE('',#1264,0.0005);
#72=CIRCLE('',#1265,0.0005);
#73=CIRCLE('',#1266,0.0005);
#74=CIRCLE('',#1267,0.0005);
#75=CIRCLE('',#1268,0.0005);
#76=CIRCLE('',#1269,0.0005);
#77=CIRCLE('',#1270,0.0005);
#78=CIRCLE('',#1271,0.0005);
#79=CIRCLE('',#1272,0.0005);
#80=CIRCLE('',#1273,0.0005);
#81=CIRCLE('',#1274,0.0005);
#82=CIRCLE('',#1275,0.0005);
#83=CIRCLE('',#1276,0.0005);
#84=CIRCLE('',#1277,0.0005);
#85=CIRCLE('',#1278,0.0005);
#86=CIRCLE('',#1279,0.0005);
#87=CIRCLE('',#1280,0.0005);
#88=CIRCLE('',#1281,0.0005);
#89=CIRCLE('',#1282,0.0005);
#90=ORIENTED_EDGE('',*,*,#430,.T.);
#91=ORIENTED_EDGE('',*,*,#431,.T.);
#92=ORIENTED_EDGE('',*,*,#432,.T.);
#93=ORIENTED_EDGE('',*,*,#433,.F.);
#94=ORIENTED_EDGE('',*,*,#434,.F.);
#95=ORIENTED_EDGE('',*,*,#435,.T.);
#96=ORIENTED_EDGE('',*,*,#436,.T.);
#97=ORIENTED_EDGE('',*,*,#437,.F.);
#98=ORIENTED_EDGE('',*,*,#438,.T.);
#99=ORIENTED_EDGE('',*,*,#439,.T.);
#100=ORIENTED_EDGE('',*,*,#440,.T.);
#101=ORIENTED_EDGE('',*,*,#441,.T.);
#102=ORIENTED_EDGE('',*,*,#442,.T.);
#103=ORIENTED_EDGE('',*,*,#443,.T.);
#104=ORIENTED_EDGE('',*,*,#444,.T.);
#105=ORIENTED_EDGE('',*,*,#445,.T.);
#106=ORIENTED_EDGE('',*,*,#446,.T.);
#107=ORIENTED_EDGE('',*,*,#447,.T.);
#108=ORIENTED_EDGE('',*,*,#448,.T.);
#109=ORIENTED_EDGE('',*,*,#449,.T.);
#110=ORIENTED_EDGE('',*,*,#450,.T.);
#111=ORIENTED_EDGE('',*,*,#451,.T.);
#112=ORIENTED_EDGE('',*,*,#452,.T.);
#113=ORIENTED_EDGE('',*,*,#453,.T.);
#114=ORIENTED_EDGE('',*,*,#454,.T.);
#115=ORIENTED_EDGE('',*,*,#455,.T.);
#116=ORIENTED_EDGE('',*,*,#456,.T.);
#117=ORIENTED_EDGE('',*,*,#457,.T.);
#118=ORIENTED_EDGE('',*,*,#458,.T.);
#119=ORIENTED_EDGE('',*,*,#459,.T.);
#120=ORIENTED_EDGE('',*,*,#460,.T.);
#121=ORIENTED_EDGE('',*,*,#461,.T.);
#122=ORIENTED_EDGE('',*,*,#462,.T.);
#123=ORIENTED_EDGE('',*,*,#463,.T.);
#124=ORIENTED_EDGE('',*,*,#464,.T.);
#125=ORIENTED_EDGE('',*,*,#465,.T.);
#126=ORIENTED_EDGE('',*,*,#466,.T.);
#127=ORIENTED_EDGE('',*,*,#467,.T.);
#128=ORIENTED_EDGE('',*,*,#468,.T.);
#129=ORIENTED_EDGE('',*,*,#469,.T.);
#130=ORIENTED_EDGE('',*,*,#470,.T.);
#131=ORIENTED_EDGE('',*,*,#471,.T.);
#132=ORIENTED_EDGE('',*,*,#472,.T.);
#133=ORIENTED_EDGE('',*,*,#473,.T.);
#134=ORIENTED_EDGE('',*,*,#474,.T.);
#135=ORIENTED_EDGE('',*,*,#475,.T.);
#136=ORIENTED_EDGE('',*,*,#476,.T.);
#137=ORIENTED_EDGE('',*,*,#477,.T.);
#138=ORIENTED_EDGE('',*,*,#478,.T.);
#139=ORIENTED_EDGE('',*,*,#479,.T.);
#140=ORIENTED_EDGE('',*,*,#480,.T.);
#141=ORIENTED_EDGE('',*,*,#481,.T.);
#142=ORIENTED_EDGE('',*,*,#482,.T.);
#143=ORIENTED_EDGE('',*,*,#483,.T.);
#144=ORIENTED_EDGE('',*,*,#430,.F.);
#145=ORIENTED_EDGE('',*,*,#484,.F.);
#146=ORIENTED_EDGE('',*,*,#485,.F.);
#147=ORIENTED_EDGE('',*,*,#486,.T.);
#148=ORIENTED_EDGE('',*,*,#487,.T.);
#149=ORIENTED_EDGE('',*,*,#488,.F.);
#150=ORIENTED_EDGE('',*,*,#435,.F.);
#151=ORIENTED_EDGE('',*,*,#489,.T.);
#152=ORIENTED_EDGE('',*,*,#490,.F.);
#153=ORIENTED_EDGE('',*,*,#491,.T.);
#154=ORIENTED_EDGE('',*,*,#492,.T.);
#155=ORIENTED_EDGE('',*,*,#493,.T.);
#156=ORIENTED_EDGE('',*,*,#436,.F.);
#157=ORIENTED_EDGE('',*,*,#488,.T.);
#158=ORIENTED_EDGE('',*,*,#494,.T.);
#159=ORIENTED_EDGE('',*,*,#495,.F.);
#160=ORIENTED_EDGE('',*,*,#494,.F.);
#161=ORIENTED_EDGE('',*,*,#487,.F.);
#162=ORIENTED_EDGE('',*,*,#496,.T.);
#163=ORIENTED_EDGE('',*,*,#497,.T.);
#164=ORIENTED_EDGE('',*,*,#496,.F.);
#165=ORIENTED_EDGE('',*,*,#486,.F.);
#166=ORIENTED_EDGE('',*,*,#498,.T.);
#167=ORIENTED_EDGE('',*,*,#499,.T.);
#168=ORIENTED_EDGE('',*,*,#500,.F.);
#169=ORIENTED_EDGE('',*,*,#501,.F.);
#170=ORIENTED_EDGE('',*,*,#498,.F.);
#171=ORIENTED_EDGE('',*,*,#485,.T.);
#172=ORIENTED_EDGE('',*,*,#502,.F.);
#173=ORIENTED_EDGE('',*,*,#503,.F.);
#174=ORIENTED_EDGE('',*,*,#504,.T.);
#175=ORIENTED_EDGE('',*,*,#505,.T.);
#176=ORIENTED_EDGE('',*,*,#506,.F.);
#177=ORIENTED_EDGE('',*,*,#507,.F.);
#178=ORIENTED_EDGE('',*,*,#508,.F.);
#179=ORIENTED_EDGE('',*,*,#437,.T.);
#180=ORIENTED_EDGE('',*,*,#495,.T.);
#181=ORIENTED_EDGE('',*,*,#497,.F.);
#182=ORIENTED_EDGE('',*,*,#499,.F.);
#183=ORIENTED_EDGE('',*,*,#501,.T.);
#184=ORIENTED_EDGE('',*,*,#509,.F.);
#185=ORIENTED_EDGE('',*,*,#432,.F.);
#186=ORIENTED_EDGE('',*,*,#510,.T.);
#187=ORIENTED_EDGE('',*,*,#511,.F.);
#188=ORIENTED_EDGE('',*,*,#512,.F.);
#189=ORIENTED_EDGE('',*,*,#513,.F.);
#190=ORIENTED_EDGE('',*,*,#514,.F.);
#191=ORIENTED_EDGE('',*,*,#515,.F.);
#192=ORIENTED_EDGE('',*,*,#516,.T.);
#193=ORIENTED_EDGE('',*,*,#517,.F.);
#194=ORIENTED_EDGE('',*,*,#518,.T.);
#195=ORIENTED_EDGE('',*,*,#519,.F.);
#196=ORIENTED_EDGE('',*,*,#520,.F.);
#197=ORIENTED_EDGE('',*,*,#521,.F.);
#198=ORIENTED_EDGE('',*,*,#522,.F.);
#199=ORIENTED_EDGE('',*,*,#523,.F.);
#200=ORIENTED_EDGE('',*,*,#524,.T.);
#201=ORIENTED_EDGE('',*,*,#525,.F.);
#202=ORIENTED_EDGE('',*,*,#526,.T.);
#203=ORIENTED_EDGE('',*,*,#527,.F.);
#204=ORIENTED_EDGE('',*,*,#528,.F.);
#205=ORIENTED_EDGE('',*,*,#529,.F.);
#206=ORIENTED_EDGE('',*,*,#530,.F.);
#207=ORIENTED_EDGE('',*,*,#531,.F.);
#208=ORIENTED_EDGE('',*,*,#532,.T.);
#209=ORIENTED_EDGE('',*,*,#533,.F.);
#210=ORIENTED_EDGE('',*,*,#534,.T.);
#211=ORIENTED_EDGE('',*,*,#535,.F.);
#212=ORIENTED_EDGE('',*,*,#536,.F.);
#213=ORIENTED_EDGE('',*,*,#537,.F.);
#214=ORIENTED_EDGE('',*,*,#538,.F.);
#215=ORIENTED_EDGE('',*,*,#539,.F.);
#216=ORIENTED_EDGE('',*,*,#540,.T.);
#217=ORIENTED_EDGE('',*,*,#541,.F.);
#218=ORIENTED_EDGE('',*,*,#542,.T.);
#219=ORIENTED_EDGE('',*,*,#543,.F.);
#220=ORIENTED_EDGE('',*,*,#544,.F.);
#221=ORIENTED_EDGE('',*,*,#545,.F.);
#222=ORIENTED_EDGE('',*,*,#546,.F.);
#223=ORIENTED_EDGE('',*,*,#547,.F.);
#224=ORIENTED_EDGE('',*,*,#548,.T.);
#225=ORIENTED_EDGE('',*,*,#549,.F.);
#226=ORIENTED_EDGE('',*,*,#550,.T.);
#227=ORIENTED_EDGE('',*,*,#551,.F.);
#228=ORIENTED_EDGE('',*,*,#552,.F.);
#229=ORIENTED_EDGE('',*,*,#553,.F.);
#230=ORIENTED_EDGE('',*,*,#434,.T.);
#231=ORIENTED_EDGE('',*,*,#508,.T.);
#232=ORIENTED_EDGE('',*,*,#554,.F.);
#233=ORIENTED_EDGE('',*,*,#489,.F.);
#234=ORIENTED_EDGE('',*,*,#507,.T.);
#235=ORIENTED_EDGE('',*,*,#555,.T.);
#236=ORIENTED_EDGE('',*,*,#490,.T.);
#237=ORIENTED_EDGE('',*,*,#554,.T.);
#238=ORIENTED_EDGE('',*,*,#500,.T.);
#239=ORIENTED_EDGE('',*,*,#484,.T.);
#240=ORIENTED_EDGE('',*,*,#433,.T.);
#241=ORIENTED_EDGE('',*,*,#509,.T.);
#242=ORIENTED_EDGE('',*,*,#556,.T.);
#243=ORIENTED_EDGE('',*,*,#513,.T.);
#244=ORIENTED_EDGE('',*,*,#557,.F.);
#245=ORIENTED_EDGE('',*,*,#492,.F.);
#246=ORIENTED_EDGE('',*,*,#557,.T.);
#247=ORIENTED_EDGE('',*,*,#512,.T.);
#248=ORIENTED_EDGE('',*,*,#558,.F.);
#249=ORIENTED_EDGE('',*,*,#493,.F.);
#250=ORIENTED_EDGE('',*,*,#558,.T.);
#251=ORIENTED_EDGE('',*,*,#511,.T.);
#252=ORIENTED_EDGE('',*,*,#559,.F.);
#253=ORIENTED_EDGE('',*,*,#482,.F.);
#254=ORIENTED_EDGE('',*,*,#559,.T.);
#255=ORIENTED_EDGE('',*,*,#510,.F.);
#256=ORIENTED_EDGE('',*,*,#431,.F.);
#257=ORIENTED_EDGE('',*,*,#483,.F.);
#258=ORIENTED_EDGE('',*,*,#555,.F.);
#259=ORIENTED_EDGE('',*,*,#506,.T.);
#260=ORIENTED_EDGE('',*,*,#556,.F.);
#261=ORIENTED_EDGE('',*,*,#491,.F.);
#262=ORIENTED_EDGE('',*,*,#560,.T.);
#263=ORIENTED_EDGE('',*,*,#546,.T.);
#264=ORIENTED_EDGE('',*,*,#561,.F.);
#265=ORIENTED_EDGE('',*,*,#475,.F.);
#266=ORIENTED_EDGE('',*,*,#561,.T.);
#267=ORIENTED_EDGE('',*,*,#553,.T.);
#268=ORIENTED_EDGE('',*,*,#562,.F.);
#269=ORIENTED_EDGE('',*,*,#476,.F.);
#270=ORIENTED_EDGE('',*,*,#562,.T.);
#271=ORIENTED_EDGE('',*,*,#552,.T.);
#272=ORIENTED_EDGE('',*,*,#563,.F.);
#273=ORIENTED_EDGE('',*,*,#477,.F.);
#274=ORIENTED_EDGE('',*,*,#563,.T.);
#275=ORIENTED_EDGE('',*,*,#551,.T.);
#276=ORIENTED_EDGE('',*,*,#564,.F.);
#277=ORIENTED_EDGE('',*,*,#478,.F.);
#278=ORIENTED_EDGE('',*,*,#564,.T.);
#279=ORIENTED_EDGE('',*,*,#550,.F.);
#280=ORIENTED_EDGE('',*,*,#565,.F.);
#281=ORIENTED_EDGE('',*,*,#479,.F.);
#282=ORIENTED_EDGE('',*,*,#565,.T.);
#283=ORIENTED_EDGE('',*,*,#549,.T.);
#284=ORIENTED_EDGE('',*,*,#566,.F.);
#285=ORIENTED_EDGE('',*,*,#480,.F.);
#286=ORIENTED_EDGE('',*,*,#566,.T.);
#287=ORIENTED_EDGE('',*,*,#548,.F.);
#288=ORIENTED_EDGE('',*,*,#567,.F.);
#289=ORIENTED_EDGE('',*,*,#481,.F.);
#290=ORIENTED_EDGE('',*,*,#567,.T.);
#291=ORIENTED_EDGE('',*,*,#547,.T.);
#292=ORIENTED_EDGE('',*,*,#560,.F.);
#293=ORIENTED_EDGE('',*,*,#474,.F.);
#294=ORIENTED_EDGE('',*,*,#568,.T.);
#295=ORIENTED_EDGE('',*,*,#538,.T.);
#296=ORIENTED_EDGE('',*,*,#569,.F.);
#297=ORIENTED_EDGE('',*,*,#467,.F.);
#298=ORIENTED_EDGE('',*,*,#569,.T.);
#299=ORIENTED_EDGE('',*,*,#545,.T.);
#300=ORIENTED_EDGE('',*,*,#570,.F.);
#301=ORIENTED_EDGE('',*,*,#468,.F.);
#302=ORIENTED_EDGE('',*,*,#570,.T.);
#303=ORIENTED_EDGE('',*,*,#544,.T.);
#304=ORIENTED_EDGE('',*,*,#571,.F.);
#305=ORIENTED_EDGE('',*,*,#469,.F.);
#306=ORIENTED_EDGE('',*,*,#571,.T.);
#307=ORIENTED_EDGE('',*,*,#543,.T.);
#308=ORIENTED_EDGE('',*,*,#572,.F.);
#309=ORIENTED_EDGE('',*,*,#470,.F.);
#310=ORIENTED_EDGE('',*,*,#572,.T.);
#311=ORIENTED_EDGE('',*,*,#542,.F.);
#312=ORIENTED_EDGE('',*,*,#573,.F.);
#313=ORIENTED_EDGE('',*,*,#471,.F.);
#314=ORIENTED_EDGE('',*,*,#573,.T.);
#315=ORIENTED_EDGE('',*,*,#541,.T.);
#316=ORIENTED_EDGE('',*,*,#574,.F.);
#317=ORIENTED_EDGE('',*,*,#472,.F.);
#318=ORIENTED_EDGE('',*,*,#574,.T.);
#319=ORIENTED_EDGE('',*,*,#540,.F.);
#320=ORIENTED_EDGE('',*,*,#575,.F.);
#321=ORIENTED_EDGE('',*,*,#473,.F.);
#322=ORIENTED_EDGE('',*,*,#575,.T.);
#323=ORIENTED_EDGE('',*,*,#539,.T.);
#324=ORIENTED_EDGE('',*,*,#568,.F.);
#325=ORIENTED_EDGE('',*,*,#466,.F.);
#326=ORIENTED_EDGE('',*,*,#576,.T.);
#327=ORIENTED_EDGE('',*,*,#530,.T.);
#328=ORIENTED_EDGE('',*,*,#577,.F.);
#329=ORIENTED_EDGE('',*,*,#459,.F.);
#330=ORIENTED_EDGE('',*,*,#577,.T.);
#331=ORIENTED_EDGE('',*,*,#537,.T.);
#332=ORIENTED_EDGE('',*,*,#578,.F.);
#333=ORIENTED_EDGE('',*,*,#460,.F.);
#334=ORIENTED_EDGE('',*,*,#578,.T.);
#335=ORIENTED_EDGE('',*,*,#536,.T.);
#336=ORIENTED_EDGE('',*,*,#579,.F.);
#337=ORIENTED_EDGE('',*,*,#461,.F.);
#338=ORIENTED_EDGE('',*,*,#579,.T.);
#339=ORIENTED_EDGE('',*,*,#535,.T.);
#340=ORIENTED_EDGE('',*,*,#580,.F.);
#341=ORIENTED_EDGE('',*,*,#462,.F.);
#342=ORIENTED_EDGE('',*,*,#580,.T.);
#343=ORIENTED_EDGE('',*,*,#534,.F.);
#344=ORIENTED_EDGE('',*,*,#581,.F.);
#345=ORIENTED_EDGE('',*,*,#463,.F.);
#346=ORIENTED_EDGE('',*,*,#581,.T.);
#347=ORIENTED_EDGE('',*,*,#533,.T.);
#348=ORIENTED_EDGE('',*,*,#582,.F.);
#349=ORIENTED_EDGE('',*,*,#464,.F.);
#350=ORIENTED_EDGE('',*,*,#582,.T.);
#351=ORIENTED_EDGE('',*,*,#532,.F.);
#352=ORIENTED_EDGE('',*,*,#583,.F.);
#353=ORIENTED_EDGE('',*,*,#465,.F.);
#354=ORIENTED_EDGE('',*,*,#583,.T.);
#355=ORIENTED_EDGE('',*,*,#531,.T.);
#356=ORIENTED_EDGE('',*,*,#576,.F.);
#357=ORIENTED_EDGE('',*,*,#458,.F.);
#358=ORIENTED_EDGE('',*,*,#584,.T.);
#359=ORIENTED_EDGE('',*,*,#522,.T.);
#360=ORIENTED_EDGE('',*,*,#585,.F.);
#361=ORIENTED_EDGE('',*,*,#451,.F.);
#362=ORIENTED_EDGE('',*,*,#585,.T.);
#363=ORIENTED_EDGE('',*,*,#529,.T.);
#364=ORIENTED_EDGE('',*,*,#586,.F.);
#365=ORIENTED_EDGE('',*,*,#452,.F.);
#366=ORIENTED_EDGE('',*,*,#586,.T.);
#367=ORIENTED_EDGE('',*,*,#528,.T.);
#368=ORIENTED_EDGE('',*,*,#587,.F.);
#369=ORIENTED_EDGE('',*,*,#453,.F.);
#370=ORIENTED_EDGE('',*,*,#587,.T.);
#371=ORIENTED_EDGE('',*,*,#527,.T.);
#372=ORIENTED_EDGE('',*,*,#588,.F.);
#373=ORIENTED_EDGE('',*,*,#454,.F.);
#374=ORIENTED_EDGE('',*,*,#588,.T.);
#375=ORIENTED_EDGE('',*,*,#526,.F.);
#376=ORIENTED_EDGE('',*,*,#589,.F.);
#377=ORIENTED_EDGE('',*,*,#455,.F.);
#378=ORIENTED_EDGE('',*,*,#589,.T.);
#379=ORIENTED_EDGE('',*,*,#525,.T.);
#380=ORIENTED_EDGE('',*,*,#590,.F.);
#381=ORIENTED_EDGE('',*,*,#456,.F.);
#382=ORIENTED_EDGE('',*,*,#590,.T.);
#383=ORIENTED_EDGE('',*,*,#524,.F.);
#384=ORIENTED_EDGE('',*,*,#591,.F.);
#385=ORIENTED_EDGE('',*,*,#457,.F.);
#386=ORIENTED_EDGE('',*,*,#591,.T.);
#387=ORIENTED_EDGE('',*,*,#523,.T.);
#388=ORIENTED_EDGE('',*,*,#584,.F.);
#389=ORIENTED_EDGE('',*,*,#450,.F.);
#390=ORIENTED_EDGE('',*,*,#592,.T.);
#391=ORIENTED_EDGE('',*,*,#514,.T.);
#392=ORIENTED_EDGE('',*,*,#593,.F.);
#393=ORIENTED_EDGE('',*,*,#443,.F.);
#394=ORIENTED_EDGE('',*,*,#593,.T.);
#395=ORIENTED_EDGE('',*,*,#521,.T.);
#396=ORIENTED_EDGE('',*,*,#594,.F.);
#397=ORIENTED_EDGE('',*,*,#444,.F.);
#398=ORIENTED_EDGE('',*,*,#594,.T.);
#399=ORIENTED_EDGE('',*,*,#520,.T.);
#400=ORIENTED_EDGE('',*,*,#595,.F.);
#401=ORIENTED_EDGE('',*,*,#445,.F.);
#402=ORIENTED_EDGE('',*,*,#595,.T.);
#403=ORIENTED_EDGE('',*,*,#519,.T.);
#404=ORIENTED_EDGE('',*,*,#596,.F.);
#405=ORIENTED_EDGE('',*,*,#446,.F.);
#406=ORIENTED_EDGE('',*,*,#596,.T.);
#407=ORIENTED_EDGE('',*,*,#518,.F.);
#408=ORIENTED_EDGE('',*,*,#597,.F.);
#409=ORIENTED_EDGE('',*,*,#447,.F.);
#410=ORIENTED_EDGE('',*,*,#597,.T.);
#411=ORIENTED_EDGE('',*,*,#517,.T.);
#412=ORIENTED_EDGE('',*,*,#598,.F.);
#413=ORIENTED_EDGE('',*,*,#448,.F.);
#414=ORIENTED_EDGE('',*,*,#598,.T.);
#415=ORIENTED_EDGE('',*,*,#516,.F.);
#416=ORIENTED_EDGE('',*,*,#599,.F.);
#417=ORIENTED_EDGE('',*,*,#449,.F.);
#418=ORIENTED_EDGE('',*,*,#599,.T.);
#419=ORIENTED_EDGE('',*,*,#515,.T.);
#420=ORIENTED_EDGE('',*,*,#592,.F.);
#421=ORIENTED_EDGE('',*,*,#442,.F.);
#422=ORIENTED_EDGE('',*,*,#505,.F.);
#423=ORIENTED_EDGE('',*,*,#441,.F.);
#424=ORIENTED_EDGE('',*,*,#504,.F.);
#425=ORIENTED_EDGE('',*,*,#440,.F.);
#426=ORIENTED_EDGE('',*,*,#503,.T.);
#427=ORIENTED_EDGE('',*,*,#439,.F.);
#428=ORIENTED_EDGE('',*,*,#502,.T.);
#429=ORIENTED_EDGE('',*,*,#438,.F.);
#430=EDGE_CURVE('',#600,#601,#716,.T.);
#431=EDGE_CURVE('',#601,#602,#717,.T.);
#432=EDGE_CURVE('',#602,#603,#718,.F.);
#433=EDGE_CURVE('',#600,#603,#719,.T.);
#434=EDGE_CURVE('',#604,#605,#720,.T.);
#435=EDGE_CURVE('',#604,#606,#721,.T.);
#436=EDGE_CURVE('',#606,#607,#722,.T.);
#437=EDGE_CURVE('',#605,#607,#723,.F.);
#438=EDGE_CURVE('',#608,#608,#38,.T.);
#439=EDGE_CURVE('',#609,#609,#39,.T.);
#440=EDGE_CURVE('',#610,#610,#40,.T.);
#441=EDGE_CURVE('',#611,#611,#41,.T.);
#442=EDGE_CURVE('',#612,#613,#42,.T.);
#443=EDGE_CURVE('',#613,#614,#724,.T.);
#444=EDGE_CURVE('',#614,#615,#43,.T.);
#445=EDGE_CURVE('',#615,#616,#725,.T.);
#446=EDGE_CURVE('',#616,#617,#44,.T.);
#447=EDGE_CURVE('',#617,#618,#726,.F.);
#448=EDGE_CURVE('',#618,#619,#45,.T.);
#449=EDGE_CURVE('',#619,#612,#727,.F.);
#450=EDGE_CURVE('',#620,#621,#46,.T.);
#451=EDGE_CURVE('',#621,#622,#728,.T.);
#452=EDGE_CURVE('',#622,#623,#47,.T.);
#453=EDGE_CURVE('',#623,#624,#729,.T.);
#454=EDGE_CURVE('',#624,#625,#48,.T.);
#455=EDGE_CURVE('',#625,#626,#730,.F.);
#456=EDGE_CURVE('',#626,#627,#49,.T.);
#457=EDGE_CURVE('',#627,#620,#731,.F.);
#458=EDGE_CURVE('',#628,#629,#50,.T.);
#459=EDGE_CURVE('',#629,#630,#732,.T.);
#460=EDGE_CURVE('',#630,#631,#51,.T.);
#461=EDGE_CURVE('',#631,#632,#733,.T.);
#462=EDGE_CURVE('',#632,#633,#52,.T.);
#463=EDGE_CURVE('',#633,#634,#734,.F.);
#464=EDGE_CURVE('',#634,#635,#53,.T.);
#465=EDGE_CURVE('',#635,#628,#735,.F.);
#466=EDGE_CURVE('',#636,#637,#54,.T.);
#467=EDGE_CURVE('',#637,#638,#736,.T.);
#468=EDGE_CURVE('',#638,#639,#55,.T.);
#469=EDGE_CURVE('',#639,#640,#737,.T.);
#470=EDGE_CURVE('',#640,#641,#56,.T.);
#471=EDGE_CURVE('',#641,#642,#738,.F.);
#472=EDGE_CURVE('',#642,#643,#57,.T.);
#473=EDGE_CURVE('',#643,#636,#739,.F.);
#474=EDGE_CURVE('',#644,#645,#58,.T.);
#475=EDGE_CURVE('',#645,#646,#740,.T.);
#476=EDGE_CURVE('',#646,#647,#59,.T.);
#477=EDGE_CURVE('',#647,#648,#741,.T.);
#478=EDGE_CURVE('',#648,#649,#60,.T.);
#479=EDGE_CURVE('',#649,#650,#742,.F.);
#480=EDGE_CURVE('',#650,#651,#61,.T.);
#481=EDGE_CURVE('',#651,#644,#743,.F.);
#482=EDGE_CURVE('',#652,#653,#62,.T.);
#483=EDGE_CURVE('',#653,#601,#744,.F.);
#484=EDGE_CURVE('',#654,#600,#745,.T.);
#485=EDGE_CURVE('',#655,#654,#746,.T.);
#486=EDGE_CURVE('',#655,#656,#747,.T.);
#487=EDGE_CURVE('',#656,#657,#748,.T.);
#488=EDGE_CURVE('',#606,#657,#749,.T.);
#489=EDGE_CURVE('',#604,#658,#750,.T.);
#490=EDGE_CURVE('',#659,#658,#751,.T.);
#491=EDGE_CURVE('',#659,#660,#752,.T.);
#492=EDGE_CURVE('',#660,#661,#63,.T.);
#493=EDGE_CURVE('',#661,#652,#753,.T.);
#494=EDGE_CURVE('',#657,#662,#754,.T.);
#495=EDGE_CURVE('',#607,#662,#755,.F.);
#496=EDGE_CURVE('',#656,#663,#756,.T.);
#497=EDGE_CURVE('',#663,#662,#757,.F.);
#498=EDGE_CURVE('',#655,#664,#758,.T.);
#499=EDGE_CURVE('',#664,#663,#759,.F.);
#500=EDGE_CURVE('',#665,#654,#760,.F.);
#501=EDGE_CURVE('',#664,#665,#761,.F.);
#502=EDGE_CURVE('',#666,#666,#64,.T.);
#503=EDGE_CURVE('',#667,#667,#65,.T.);
#504=EDGE_CURVE('',#668,#668,#66,.T.);
#505=EDGE_CURVE('',#669,#669,#67,.T.);
#506=EDGE_CURVE('',#670,#671,#762,.T.);
#507=EDGE_CURVE('',#672,#670,#763,.F.);
#508=EDGE_CURVE('',#605,#672,#764,.T.);
#509=EDGE_CURVE('',#603,#665,#765,.F.);
#510=EDGE_CURVE('',#602,#673,#766,.T.);
#511=EDGE_CURVE('',#674,#673,#68,.T.);
#512=EDGE_CURVE('',#675,#674,#767,.T.);
#513=EDGE_CURVE('',#671,#675,#69,.T.);
#514=EDGE_CURVE('',#676,#677,#768,.T.);
#515=EDGE_CURVE('',#678,#676,#70,.T.);
#516=EDGE_CURVE('',#678,#679,#769,.T.);
#517=EDGE_CURVE('',#680,#679,#71,.T.);
#518=EDGE_CURVE('',#680,#681,#770,.T.);
#519=EDGE_CURVE('',#682,#681,#72,.T.);
#520=EDGE_CURVE('',#683,#682,#771,.T.);
#521=EDGE_CURVE('',#677,#683,#73,.T.);
#522=EDGE_CURVE('',#684,#685,#772,.T.);
#523=EDGE_CURVE('',#686,#684,#74,.T.);
#524=EDGE_CURVE('',#686,#687,#773,.T.);
#525=EDGE_CURVE('',#688,#687,#75,.T.);
#526=EDGE_CURVE('',#688,#689,#774,.T.);
#527=EDGE_CURVE('',#690,#689,#76,.T.);
#528=EDGE_CURVE('',#691,#690,#775,.T.);
#529=EDGE_CURVE('',#685,#691,#77,.T.);
#530=EDGE_CURVE('',#692,#693,#776,.T.);
#531=EDGE_CURVE('',#694,#692,#78,.T.);
#532=EDGE_CURVE('',#694,#695,#777,.T.);
#533=EDGE_CURVE('',#696,#695,#79,.T.);
#534=EDGE_CURVE('',#696,#697,#778,.T.);
#535=EDGE_CURVE('',#698,#697,#80,.T.);
#536=EDGE_CURVE('',#699,#698,#779,.T.);
#537=EDGE_CURVE('',#693,#699,#81,.T.);
#538=EDGE_CURVE('',#700,#701,#780,.T.);
#539=EDGE_CURVE('',#702,#700,#82,.T.);
#540=EDGE_CURVE('',#702,#703,#781,.T.);
#541=EDGE_CURVE('',#704,#703,#83,.T.);
#542=EDGE_CURVE('',#704,#705,#782,.T.);
#543=EDGE_CURVE('',#706,#705,#84,.T.);
#544=EDGE_CURVE('',#707,#706,#783,.T.);
#545=EDGE_CURVE('',#701,#707,#85,.T.);
#546=EDGE_CURVE('',#708,#709,#784,.T.);
#547=EDGE_CURVE('',#710,#708,#86,.T.);
#548=EDGE_CURVE('',#710,#711,#785,.T.);
#549=EDGE_CURVE('',#712,#711,#87,.T.);
#550=EDGE_CURVE('',#712,#713,#786,.T.);
#551=EDGE_CURVE('',#714,#713,#88,.T.);
#552=EDGE_CURVE('',#715,#714,#787,.T.);
#553=EDGE_CURVE('',#709,#715,#89,.T.);
#554=EDGE_CURVE('',#658,#672,#788,.T.);
#555=EDGE_CURVE('',#670,#659,#789,.F.);
#556=EDGE_CURVE('',#660,#671,#790,.T.);
#557=EDGE_CURVE('',#661,#675,#791,.T.);
#558=EDGE_CURVE('',#652,#674,#792,.T.);
#559=EDGE_CURVE('',#653,#673,#793,.T.);
#560=EDGE_CURVE('',#645,#708,#794,.T.);
#561=EDGE_CURVE('',#646,#709,#795,.T.);
#562=EDGE_CURVE('',#647,#715,#796,.T.);
#563=EDGE_CURVE('',#648,#714,#797,.T.);
#564=EDGE_CURVE('',#649,#713,#798,.T.);
#565=EDGE_CURVE('',#650,#712,#799,.T.);
#566=EDGE_CURVE('',#651,#711,#800,.T.);
#567=EDGE_CURVE('',#644,#710,#801,.T.);
#568=EDGE_CURVE('',#637,#700,#802,.T.);
#569=EDGE_CURVE('',#638,#701,#803,.T.);
#570=EDGE_CURVE('',#639,#707,#804,.T.);
#571=EDGE_CURVE('',#640,#706,#805,.T.);
#572=EDGE_CURVE('',#641,#705,#806,.T.);
#573=EDGE_CURVE('',#642,#704,#807,.T.);
#574=EDGE_CURVE('',#643,#703,#808,.T.);
#575=EDGE_CURVE('',#636,#702,#809,.T.);
#576=EDGE_CURVE('',#629,#692,#810,.T.);
#577=EDGE_CURVE('',#630,#693,#811,.T.);
#578=EDGE_CURVE('',#631,#699,#812,.T.);
#579=EDGE_CURVE('',#632,#698,#813,.T.);
#580=EDGE_CURVE('',#633,#697,#814,.T.);
#581=EDGE_CURVE('',#634,#696,#815,.T.);
#582=EDGE_CURVE('',#635,#695,#816,.T.);
#583=EDGE_CURVE('',#628,#694,#817,.T.);
#584=EDGE_CURVE('',#621,#684,#818,.T.);
#585=EDGE_CURVE('',#622,#685,#819,.T.);
#586=EDGE_CURVE('',#623,#691,#820,.T.);
#587=EDGE_CURVE('',#624,#690,#821,.T.);
#588=EDGE_CURVE('',#625,#689,#822,.T.);
#589=EDGE_CURVE('',#626,#688,#823,.T.);
#590=EDGE_CURVE('',#627,#687,#824,.T.);
#591=EDGE_CURVE('',#620,#686,#825,.T.);
#592=EDGE_CURVE('',#613,#676,#826,.T.);
#593=EDGE_CURVE('',#614,#677,#827,.T.);
#594=EDGE_CURVE('',#615,#683,#828,.T.);
#595=EDGE_CURVE('',#616,#682,#829,.T.);
#596=EDGE_CURVE('',#617,#681,#830,.T.);
#597=EDGE_CURVE('',#618,#680,#831,.T.);
#598=EDGE_CURVE('',#619,#679,#832,.T.);
#599=EDGE_CURVE('',#612,#678,#833,.T.);
#600=VERTEX_POINT('',#1682);
#601=VERTEX_POINT('',#1683);
#602=VERTEX_POINT('',#1685);
#603=VERTEX_POINT('',#1687);
#604=VERTEX_POINT('',#1691);
#605=VERTEX_POINT('',#1692);
#606=VERTEX_POINT('',#1694);
#607=VERTEX_POINT('',#1696);
#608=VERTEX_POINT('',#1700);
#609=VERTEX_POINT('',#1702);
#610=VERTEX_POINT('',#1704);
#611=VERTEX_POINT('',#1706);
#612=VERTEX_POINT('',#1708);
#613=VERTEX_POINT('',#1709);
#614=VERTEX_POINT('',#1711);
#615=VERTEX_POINT('',#1713);
#616=VERTEX_POINT('',#1715);
#617=VERTEX_POINT('',#1717);
#618=VERTEX_POINT('',#1719);
#619=VERTEX_POINT('',#1721);
#620=VERTEX_POINT('',#1724);
#621=VERTEX_POINT('',#1725);
#622=VERTEX_POINT('',#1727);
#623=VERTEX_POINT('',#1729);
#624=VERTEX_POINT('',#1731);
#625=VERTEX_POINT('',#1733);
#626=VERTEX_POINT('',#1735);
#627=VERTEX_POINT('',#1737);
#628=VERTEX_POINT('',#1740);
#629=VERTEX_POINT('',#1741);
#630=VERTEX_POINT('',#1743);
#631=VERTEX_POINT('',#1745);
#632=VERTEX_POINT('',#1747);
#633=VERTEX_POINT('',#1749);
#634=VERTEX_POINT('',#1751);
#635=VERTEX_POINT('',#1753);
#636=VERTEX_POINT('',#1756);
#637=VERTEX_POINT('',#1757);
#638=VERTEX_POINT('',#1759);
#639=VERTEX_POINT('',#1761);
#640=VERTEX_POINT('',#1763);
#641=VERTEX_POINT('',#1765);
#642=VERTEX_POINT('',#1767);
#643=VERTEX_POINT('',#1769);
#644=VERTEX_POINT('',#1772);
#645=VERTEX_POINT('',#1773);
#646=VERTEX_POINT('',#1775);
#647=VERTEX_POINT('',#1777);
#648=VERTEX_POINT('',#1779);
#649=VERTEX_POINT('',#1781);
#650=VERTEX_POINT('',#1783);
#651=VERTEX_POINT('',#1785);
#652=VERTEX_POINT('',#1788);
#653=VERTEX_POINT('',#1789);
#654=VERTEX_POINT('',#1792);
#655=VERTEX_POINT('',#1794);
#656=VERTEX_POINT('',#1796);
#657=VERTEX_POINT('',#1798);
#658=VERTEX_POINT('',#1801);
#659=VERTEX_POINT('',#1803);
#660=VERTEX_POINT('',#1805);
#661=VERTEX_POINT('',#1807);
#662=VERTEX_POINT('',#1811);
#663=VERTEX_POINT('',#1815);
#664=VERTEX_POINT('',#1819);
#665=VERTEX_POINT('',#1823);
#666=VERTEX_POINT('',#1827);
#667=VERTEX_POINT('',#1829);
#668=VERTEX_POINT('',#1831);
#669=VERTEX_POINT('',#1833);
#670=VERTEX_POINT('',#1835);
#671=VERTEX_POINT('',#1836);
#672=VERTEX_POINT('',#1838);
#673=VERTEX_POINT('',#1842);
#674=VERTEX_POINT('',#1844);
#675=VERTEX_POINT('',#1846);
#676=VERTEX_POINT('',#1849);
#677=VERTEX_POINT('',#1850);
#678=VERTEX_POINT('',#1852);
#679=VERTEX_POINT('',#1854);
#680=VERTEX_POINT('',#1856);
#681=VERTEX_POINT('',#1858);
#682=VERTEX_POINT('',#1860);
#683=VERTEX_POINT('',#1862);
#684=VERTEX_POINT('',#1865);
#685=VERTEX_POINT('',#1866);
#686=VERTEX_POINT('',#1868);
#687=VERTEX_POINT('',#1870);
#688=VERTEX_POINT('',#1872);
#689=VERTEX_POINT('',#1874);
#690=VERTEX_POINT('',#1876);
#691=VERTEX_POINT('',#1878);
#692=VERTEX_POINT('',#1881);
#693=VERTEX_POINT('',#1882);
#694=VERTEX_POINT('',#1884);
#695=VERTEX_POINT('',#1886);
#696=VERTEX_POINT('',#1888);
#697=VERTEX_POINT('',#1890);
#698=VERTEX_POINT('',#1892);
#699=VERTEX_POINT('',#1894);
#700=VERTEX_POINT('',#1897);
#701=VERTEX_POINT('',#1898);
#702=VERTEX_POINT('',#1900);
#703=VERTEX_POINT('',#1902);
#704=VERTEX_POINT('',#1904);
#705=VERTEX_POINT('',#1906);
#706=VERTEX_POINT('',#1908);
#707=VERTEX_POINT('',#1910);
#708=VERTEX_POINT('',#1913);
#709=VERTEX_POINT('',#1914);
#710=VERTEX_POINT('',#1916);
#711=VERTEX_POINT('',#1918);
#712=VERTEX_POINT('',#1920);
#713=VERTEX_POINT('',#1922);
#714=VERTEX_POINT('',#1924);
#715=VERTEX_POINT('',#1926);
#716=LINE('',#1681,#834);
#717=LINE('',#1684,#835);
#718=LINE('',#1686,#836);
#719=LINE('',#1688,#837);
#720=LINE('',#1690,#838);
#721=LINE('',#1693,#839);
#722=LINE('',#1695,#840);
#723=LINE('',#1697,#841);
#724=LINE('',#1710,#842);
#725=LINE('',#1714,#843);
#726=LINE('',#1718,#844);
#727=LINE('',#1722,#845);
#728=LINE('',#1726,#846);
#729=LINE('',#1730,#847);
#730=LINE('',#1734,#848);
#731=LINE('',#1738,#849);
#732=LINE('',#1742,#850);
#733=LINE('',#1746,#851);
#734=LINE('',#1750,#852);
#735=LINE('',#1754,#853);
#736=LINE('',#1758,#854);
#737=LINE('',#1762,#855);
#738=LINE('',#1766,#856);
#739=LINE('',#1770,#857);
#740=LINE('',#1774,#858);
#741=LINE('',#1778,#859);
#742=LINE('',#1782,#860);
#743=LINE('',#1786,#861);
#744=LINE('',#1790,#862);
#745=LINE('',#1791,#863);
#746=LINE('',#1793,#864);
#747=LINE('',#1795,#865);
#748=LINE('',#1797,#866);
#749=LINE('',#1799,#867);
#750=LINE('',#1800,#868);
#751=LINE('',#1802,#869);
#752=LINE('',#1804,#870);
#753=LINE('',#1808,#871);
#754=LINE('',#1810,#872);
#755=LINE('',#1812,#873);
#756=LINE('',#1814,#874);
#757=LINE('',#1816,#875);
#758=LINE('',#1818,#876);
#759=LINE('',#1820,#877);
#760=LINE('',#1822,#878);
#761=LINE('',#1824,#879);
#762=LINE('',#1834,#880);
#763=LINE('',#1837,#881);
#764=LINE('',#1839,#882);
#765=LINE('',#1840,#883);
#766=LINE('',#1841,#884);
#767=LINE('',#1845,#885);
#768=LINE('',#1848,#886);
#769=LINE('',#1853,#887);
#770=LINE('',#1857,#888);
#771=LINE('',#1861,#889);
#772=LINE('',#1864,#890);
#773=LINE('',#1869,#891);
#774=LINE('',#1873,#892);
#775=LINE('',#1877,#893);
#776=LINE('',#1880,#894);
#777=LINE('',#1885,#895);
#778=LINE('',#1889,#896);
#779=LINE('',#1893,#897);
#780=LINE('',#1896,#898);
#781=LINE('',#1901,#899);
#782=LINE('',#1905,#900);
#783=LINE('',#1909,#901);
#784=LINE('',#1912,#902);
#785=LINE('',#1917,#903);
#786=LINE('',#1921,#904);
#787=LINE('',#1925,#905);
#788=LINE('',#1929,#906);
#789=LINE('',#1931,#907);
#790=LINE('',#1934,#908);
#791=LINE('',#1935,#909);
#792=LINE('',#1937,#910);
#793=LINE('',#1939,#911);
#794=LINE('',#1943,#912);
#795=LINE('',#1944,#913);
#796=LINE('',#1946,#914);
#797=LINE('',#1948,#915);
#798=LINE('',#1950,#916);
#799=LINE('',#1952,#917);
#800=LINE('',#1954,#918);
#801=LINE('',#1956,#919);
#802=LINE('',#1959,#920);
#803=LINE('',#1960,#921);
#804=LINE('',#1962,#922);
#805=LINE('',#1964,#923);
#806=LINE('',#1966,#924);
#807=LINE('',#1968,#925);
#808=LINE('',#1970,#926);
#809=LINE('',#1972,#927);
#810=LINE('',#1975,#928);
#811=LINE('',#1976,#929);
#812=LINE('',#1978,#930);
#813=LINE('',#1980,#931);
#814=LINE('',#1982,#932);
#815=LINE('',#1984,#933);
#816=LINE('',#1986,#934);
#817=LINE('',#1988,#935);
#818=LINE('',#1991,#936);
#819=LINE('',#1992,#937);
#820=LINE('',#1994,#938);
#821=LINE('',#1996,#939);
#822=LINE('',#1998,#940);
#823=LINE('',#2000,#941);
#824=LINE('',#2002,#942);
#825=LINE('',#2004,#943);
#826=LINE('',#2007,#944);
#827=LINE('',#2008,#945);
#828=LINE('',#2010,#946);
#829=LINE('',#2012,#947);
#830=LINE('',#2014,#948);
#831=LINE('',#2016,#949);
#832=LINE('',#2018,#950);
#833=LINE('',#2020,#951);
#834=VECTOR('',#1339,1.);
#835=VECTOR('',#1340,1.);
#836=VECTOR('',#1341,1.);
#837=VECTOR('',#1342,1.);
#838=VECTOR('',#1345,1.);
#839=VECTOR('',#1346,1.);
#840=VECTOR('',#1347,1.);
#841=VECTOR('',#1348,1.);
#842=VECTOR('',#1361,1.);
#843=VECTOR('',#1364,1.);
#844=VECTOR('',#1367,1.);
#845=VECTOR('',#1370,1.);
#846=VECTOR('',#1373,1.);
#847=VECTOR('',#1376,1.);
#848=VECTOR('',#1379,1.);
#849=VECTOR('',#1382,1.);
#850=VECTOR('',#1385,1.);
#851=VECTOR('',#1388,1.);
#852=VECTOR('',#1391,1.);
#853=VECTOR('',#1394,1.);
#854=VECTOR('',#1397,1.);
#855=VECTOR('',#1400,1.);
#856=VECTOR('',#1403,1.);
#857=VECTOR('',#1406,1.);
#858=VECTOR('',#1409,1.);
#859=VECTOR('',#1412,1.);
#860=VECTOR('',#1415,1.);
#861=VECTOR('',#1418,1.);
#862=VECTOR('',#1421,1.);
#863=VECTOR('',#1422,1.);
#864=VECTOR('',#1423,1.);
#865=VECTOR('',#1424,1.);
#866=VECTOR('',#1425,1.);
#867=VECTOR('',#1426,1.);
#868=VECTOR('',#1427,1.);
#869=VECTOR('',#1428,1.);
#870=VECTOR('',#1429,1.);
#871=VECTOR('',#1432,1.);
#872=VECTOR('',#1435,1.);
#873=VECTOR('',#1436,1.);
#874=VECTOR('',#1439,1.);
#875=VECTOR('',#1440,1.);
#876=VECTOR('',#1443,1.);
#877=VECTOR('',#1444,1.);
#878=VECTOR('',#1447,1.);
#879=VECTOR('',#1448,1.);
#880=VECTOR('',#1459,1.);
#881=VECTOR('',#1460,1.);
#882=VECTOR('',#1461,1.);
#883=VECTOR('',#1462,1.);
#884=VECTOR('',#1463,1.);
#885=VECTOR('',#1466,1.);
#886=VECTOR('',#1469,1.);
#887=VECTOR('',#1472,1.);
#888=VECTOR('',#1475,1.);
#889=VECTOR('',#1478,1.);
#890=VECTOR('',#1481,1.);
#891=VECTOR('',#1484,1.);
#892=VECTOR('',#1487,1.);
#893=VECTOR('',#1490,1.);
#894=VECTOR('',#1493,1.);
#895=VECTOR('',#1496,1.);
#896=VECTOR('',#1499,1.);
#897=VECTOR('',#1502,1.);
#898=VECTOR('',#1505,1.);
#899=VECTOR('',#1508,1.);
#900=VECTOR('',#1511,1.);
#901=VECTOR('',#1514,1.);
#902=VECTOR('',#1517,1.);
#903=VECTOR('',#1520,1.);
#904=VECTOR('',#1523,1.);
#905=VECTOR('',#1526,1.);
#906=VECTOR('',#1531,1.);
#907=VECTOR('',#1534,1.);
#908=VECTOR('',#1539,1.);
#909=VECTOR('',#1540,1.);
#910=VECTOR('',#1543,1.);
#911=VECTOR('',#1546,1.);
#912=VECTOR('',#1553,1.);
#913=VECTOR('',#1554,1.);
#914=VECTOR('',#1557,1.);
#915=VECTOR('',#1560,1.);
#916=VECTOR('',#1563,1.);
#917=VECTOR('',#1566,1.);
#918=VECTOR('',#1569,1.);
#919=VECTOR('',#1572,1.);
#920=VECTOR('',#1577,1.);
#921=VECTOR('',#1578,1.);
#922=VECTOR('',#1581,1.);
#923=VECTOR('',#1584,1.);
#924=VECTOR('',#1587,1.);
#925=VECTOR('',#1590,1.);
#926=VECTOR('',#1593,1.);
#927=VECTOR('',#1596,1.);
#928=VECTOR('',#1601,1.);
#929=VECTOR('',#1602,1.);
#930=VECTOR('',#1605,1.);
#931=VECTOR('',#1608,1.);
#932=VECTOR('',#1611,1.);
#933=VECTOR('',#1614,1.);
#934=VECTOR('',#1617,1.);
#935=VECTOR('',#1620,1.);
#936=VECTOR('',#1625,1.);
#937=VECTOR('',#1626,1.);
#938=VECTOR('',#1629,1.);
#939=VECTOR('',#1632,1.);
#940=VECTOR('',#1635,1.);
#941=VECTOR('',#1638,1.);
#942=VECTOR('',#1641,1.);
#943=VECTOR('',#1644,1.);
#944=VECTOR('',#1649,1.);
#945=VECTOR('',#1650,1.);
#946=VECTOR('',#1653,1.);
#947=VECTOR('',#1656,1.);
#948=VECTOR('',#1659,1.);
#949=VECTOR('',#1662,1.);
#950=VECTOR('',#1665,1.);
#951=VECTOR('',#1668,1.);
#952=EDGE_LOOP('',(#90,#91,#92,#93));
#953=EDGE_LOOP('',(#94,#95,#96,#97));
#954=EDGE_LOOP('',(#98));
#955=EDGE_LOOP('',(#99));
#956=EDGE_LOOP('',(#100));
#957=EDGE_LOOP('',(#101));
#958=EDGE_LOOP('',(#102,#103,#104,#105,#106,#107,#108,#109));
#959=EDGE_LOOP('',(#110,#111,#112,#113,#114,#115,#116,#117));
#960=EDGE_LOOP('',(#118,#119,#120,#121,#122,#123,#124,#125));
#961=EDGE_LOOP('',(#126,#127,#128,#129,#130,#131,#132,#133));
#962=EDGE_LOOP('',(#134,#135,#136,#137,#138,#139,#140,#141));
#963=EDGE_LOOP('',(#142,#143,#144,#145,#146,#147,#148,#149,#150,#151,#152,
#153,#154,#155));
#964=EDGE_LOOP('',(#156,#157,#158,#159));
#965=EDGE_LOOP('',(#160,#161,#162,#163));
#966=EDGE_LOOP('',(#164,#165,#166,#167));
#967=EDGE_LOOP('',(#168,#169,#170,#171));
#968=EDGE_LOOP('',(#172));
#969=EDGE_LOOP('',(#173));
#970=EDGE_LOOP('',(#174));
#971=EDGE_LOOP('',(#175));
#972=EDGE_LOOP('',(#176,#177,#178,#179,#180,#181,#182,#183,#184,#185,#186,
#187,#188,#189));
#973=EDGE_LOOP('',(#190,#191,#192,#193,#194,#195,#196,#197));
#974=EDGE_LOOP('',(#198,#199,#200,#201,#202,#203,#204,#205));
#975=EDGE_LOOP('',(#206,#207,#208,#209,#210,#211,#212,#213));
#976=EDGE_LOOP('',(#214,#215,#216,#217,#218,#219,#220,#221));
#977=EDGE_LOOP('',(#222,#223,#224,#225,#226,#227,#228,#229));
#978=EDGE_LOOP('',(#230,#231,#232,#233));
#979=EDGE_LOOP('',(#234,#235,#236,#237));
#980=EDGE_LOOP('',(#238,#239,#240,#241));
#981=EDGE_LOOP('',(#242,#243,#244,#245));
#982=EDGE_LOOP('',(#246,#247,#248,#249));
#983=EDGE_LOOP('',(#250,#251,#252,#253));
#984=EDGE_LOOP('',(#254,#255,#256,#257));
#985=EDGE_LOOP('',(#258,#259,#260,#261));
#986=EDGE_LOOP('',(#262,#263,#264,#265));
#987=EDGE_LOOP('',(#266,#267,#268,#269));
#988=EDGE_LOOP('',(#270,#271,#272,#273));
#989=EDGE_LOOP('',(#274,#275,#276,#277));
#990=EDGE_LOOP('',(#278,#279,#280,#281));
#991=EDGE_LOOP('',(#282,#283,#284,#285));
#992=EDGE_LOOP('',(#286,#287,#288,#289));
#993=EDGE_LOOP('',(#290,#291,#292,#293));
#994=EDGE_LOOP('',(#294,#295,#296,#297));
#995=EDGE_LOOP('',(#298,#299,#300,#301));
#996=EDGE_LOOP('',(#302,#303,#304,#305));
#997=EDGE_LOOP('',(#306,#307,#308,#309));
#998=EDGE_LOOP('',(#310,#311,#312,#313));
#999=EDGE_LOOP('',(#314,#315,#316,#317));
#1000=EDGE_LOOP('',(#318,#319,#320,#321));
#1001=EDGE_LOOP('',(#322,#323,#324,#325));
#1002=EDGE_LOOP('',(#326,#327,#328,#329));
#1003=EDGE_LOOP('',(#330,#331,#332,#333));
#1004=EDGE_LOOP('',(#334,#335,#336,#337));
#1005=EDGE_LOOP('',(#338,#339,#340,#341));
#1006=EDGE_LOOP('',(#342,#343,#344,#345));
#1007=EDGE_LOOP('',(#346,#347,#348,#349));
#1008=EDGE_LOOP('',(#350,#351,#352,#353));
#1009=EDGE_LOOP('',(#354,#355,#356,#357));
#1010=EDGE_LOOP('',(#358,#359,#360,#361));
#1011=EDGE_LOOP('',(#362,#363,#364,#365));
#1012=EDGE_LOOP('',(#366,#367,#368,#369));
#1013=EDGE_LOOP('',(#370,#371,#372,#373));
#1014=EDGE_LOOP('',(#374,#375,#376,#377));
#1015=EDGE_LOOP('',(#378,#379,#380,#381));
#1016=EDGE_LOOP('',(#382,#383,#384,#385));
#1017=EDGE_LOOP('',(#386,#387,#388,#389));
#1018=EDGE_LOOP('',(#390,#391,#392,#393));
#1019=EDGE_LOOP('',(#394,#395,#396,#397));
#1020=EDGE_LOOP('',(#398,#399,#400,#401));
#1021=EDGE_LOOP('',(#402,#403,#404,#405));
#1022=EDGE_LOOP('',(#406,#407,#408,#409));
#1023=EDGE_LOOP('',(#410,#411,#412,#413));
#1024=EDGE_LOOP('',(#414,#415,#416,#417));
#1025=EDGE_LOOP('',(#418,#419,#420,#421));
#1026=EDGE_LOOP('',(#422));
#1027=EDGE_LOOP('',(#423));
#1028=EDGE_LOOP('',(#424));
#1029=EDGE_LOOP('',(#425));
#1030=EDGE_LOOP('',(#426));
#1031=EDGE_LOOP('',(#427));
#1032=EDGE_LOOP('',(#428));
#1033=EDGE_LOOP('',(#429));
#1034=FACE_BOUND('',#952,.T.);
#1035=FACE_BOUND('',#953,.T.);
#1036=FACE_BOUND('',#954,.T.);
#1037=FACE_BOUND('',#955,.T.);
#1038=FACE_BOUND('',#956,.T.);
#1039=FACE_BOUND('',#957,.T.);
#1040=FACE_BOUND('',#958,.T.);
#1041=FACE_BOUND('',#959,.T.);
#1042=FACE_BOUND('',#960,.T.);
#1043=FACE_BOUND('',#961,.T.);
#1044=FACE_BOUND('',#962,.T.);
#1045=FACE_BOUND('',#963,.T.);
#1046=FACE_BOUND('',#964,.T.);
#1047=FACE_BOUND('',#965,.T.);
#1048=FACE_BOUND('',#966,.T.);
#1049=FACE_BOUND('',#967,.T.);
#1050=FACE_BOUND('',#968,.T.);
#1051=FACE_BOUND('',#969,.T.);
#1052=FACE_BOUND('',#970,.T.);
#1053=FACE_BOUND('',#971,.T.);
#1054=FACE_BOUND('',#972,.T.);
#1055=FACE_BOUND('',#973,.T.);
#1056=FACE_BOUND('',#974,.T.);
#1057=FACE_BOUND('',#975,.T.);
#1058=FACE_BOUND('',#976,.T.);
#1059=FACE_BOUND('',#977,.T.);
#1060=FACE_BOUND('',#978,.T.);
#1061=FACE_BOUND('',#979,.T.);
#1062=FACE_BOUND('',#980,.T.);
#1063=FACE_BOUND('',#981,.T.);
#1064=FACE_BOUND('',#982,.T.);
#1065=FACE_BOUND('',#983,.T.);
#1066=FACE_BOUND('',#984,.T.);
#1067=FACE_BOUND('',#985,.T.);
#1068=FACE_BOUND('',#986,.T.);
#1069=FACE_BOUND('',#987,.T.);
#1070=FACE_BOUND('',#988,.T.);
#1071=FACE_BOUND('',#989,.T.);
#1072=FACE_BOUND('',#990,.T.);
#1073=FACE_BOUND('',#991,.T.);
#1074=FACE_BOUND('',#992,.T.);
#1075=FACE_BOUND('',#993,.T.);
#1076=FACE_BOUND('',#994,.T.);
#1077=FACE_BOUND('',#995,.T.);
#1078=FACE_BOUND('',#996,.T.);
#1079=FACE_BOUND('',#997,.T.);
#1080=FACE_BOUND('',#998,.T.);
#1081=FACE_BOUND('',#999,.T.);
#1082=FACE_BOUND('',#1000,.T.);
#1083=FACE_BOUND('',#1001,.T.);
#1084=FACE_BOUND('',#1002,.T.);
#1085=FACE_BOUND('',#1003,.T.);
#1086=FACE_BOUND('',#1004,.T.);
#1087=FACE_BOUND('',#1005,.T.);
#1088=FACE_BOUND('',#1006,.T.);
#1089=FACE_BOUND('',#1007,.T.);
#1090=FACE_BOUND('',#1008,.T.);
#1091=FACE_BOUND('',#1009,.T.);
#1092=FACE_BOUND('',#1010,.T.);
#1093=FACE_BOUND('',#1011,.T.);
#1094=FACE_BOUND('',#1012,.T.);
#1095=FACE_BOUND('',#1013,.T.);
#1096=FACE_BOUND('',#1014,.T.);
#1097=FACE_BOUND('',#1015,.T.);
#1098=FACE_BOUND('',#1016,.T.);
#1099=FACE_BOUND('',#1017,.T.);
#1100=FACE_BOUND('',#1018,.T.);
#1101=FACE_BOUND('',#1019,.T.);
#1102=FACE_BOUND('',#1020,.T.);
#1103=FACE_BOUND('',#1021,.T.);
#1104=FACE_BOUND('',#1022,.T.);
#1105=FACE_BOUND('',#1023,.T.);
#1106=FACE_BOUND('',#1024,.T.);
#1107=FACE_BOUND('',#1025,.T.);
#1108=FACE_BOUND('',#1026,.T.);
#1109=FACE_BOUND('',#1027,.T.);
#1110=FACE_BOUND('',#1028,.T.);
#1111=FACE_BOUND('',#1029,.T.);
#1112=FACE_BOUND('',#1030,.T.);
#1113=FACE_BOUND('',#1031,.T.);
#1114=FACE_BOUND('',#1032,.T.);
#1115=FACE_BOUND('',#1033,.T.);
#1116=PLANE('',#1223);
#1117=PLANE('',#1224);
#1118=PLANE('',#1225);
#1119=PLANE('',#1252);
#1120=PLANE('',#1253);
#1121=PLANE('',#1254);
#1122=PLANE('',#1255);
#1123=PLANE('',#1256);
#1124=PLANE('',#1283);
#1125=PLANE('',#1284);
#1126=PLANE('',#1285);
#1127=PLANE('',#1287);
#1128=PLANE('',#1289);
#1129=PLANE('',#1290);
#1130=PLANE('',#1291);
#1131=PLANE('',#1293);
#1132=PLANE('',#1295);
#1133=PLANE('',#1297);
#1134=PLANE('',#1299);
#1135=PLANE('',#1301);
#1136=PLANE('',#1303);
#1137=PLANE('',#1305);
#1138=PLANE('',#1307);
#1139=PLANE('',#1309);
#1140=PLANE('',#1311);
#1141=PLANE('',#1313);
#1142=PLANE('',#1315);
#1143=PLANE('',#1317);
#1144=PLANE('',#1319);
#1145=PLANE('',#1321);
#1146=PLANE('',#1323);
#1147=PLANE('',#1325);
#1148=PLANE('',#1327);
#1149=PLANE('',#1329);
#1150=ADVANCED_FACE('',(#1034),#1116,.T.);
#1151=ADVANCED_FACE('',(#1035),#1117,.T.);
#1152=ADVANCED_FACE('',(#1036,#1037,#1038,#1039,#1040,#1041,#1042,#1043,
#1044,#1045),#1118,.F.);
#1153=ADVANCED_FACE('',(#1046),#1119,.T.);
#1154=ADVANCED_FACE('',(#1047),#1120,.F.);
#1155=ADVANCED_FACE('',(#1048),#1121,.F.);
#1156=ADVANCED_FACE('',(#1049),#1122,.T.);
#1157=ADVANCED_FACE('',(#1050,#1051,#1052,#1053,#1054,#1055,#1056,#1057,
#1058,#1059),#1123,.T.);
#1158=ADVANCED_FACE('',(#1060),#1124,.F.);
#1159=ADVANCED_FACE('',(#1061),#1125,.T.);
#1160=ADVANCED_FACE('',(#1062),#1126,.T.);
#1161=ADVANCED_FACE('',(#1063),#12,.F.);
#1162=ADVANCED_FACE('',(#1064),#1127,.F.);
#1163=ADVANCED_FACE('',(#1065),#13,.F.);
#1164=ADVANCED_FACE('',(#1066),#1128,.T.);
#1165=ADVANCED_FACE('',(#1067),#1129,.F.);
#1166=ADVANCED_FACE('',(#1068),#1130,.F.);
#1167=ADVANCED_FACE('',(#1069),#14,.F.);
#1168=ADVANCED_FACE('',(#1070),#1131,.F.);
#1169=ADVANCED_FACE('',(#1071),#15,.F.);
#1170=ADVANCED_FACE('',(#1072),#1132,.T.);
#1171=ADVANCED_FACE('',(#1073),#16,.F.);
#1172=ADVANCED_FACE('',(#1074),#1133,.T.);
#1173=ADVANCED_FACE('',(#1075),#17,.F.);
#1174=ADVANCED_FACE('',(#1076),#1134,.F.);
#1175=ADVANCED_FACE('',(#1077),#18,.F.);
#1176=ADVANCED_FACE('',(#1078),#1135,.F.);
#1177=ADVANCED_FACE('',(#1079),#19,.F.);
#1178=ADVANCED_FACE('',(#1080),#1136,.T.);
#1179=ADVANCED_FACE('',(#1081),#20,.F.);
#1180=ADVANCED_FACE('',(#1082),#1137,.T.);
#1181=ADVANCED_FACE('',(#1083),#21,.F.);
#1182=ADVANCED_FACE('',(#1084),#1138,.F.);
#1183=ADVANCED_FACE('',(#1085),#22,.F.);
#1184=ADVANCED_FACE('',(#1086),#1139,.F.);
#1185=ADVANCED_FACE('',(#1087),#23,.F.);
#1186=ADVANCED_FACE('',(#1088),#1140,.T.);
#1187=ADVANCED_FACE('',(#1089),#24,.F.);
#1188=ADVANCED_FACE('',(#1090),#1141,.T.);
#1189=ADVANCED_FACE('',(#1091),#25,.F.);
#1190=ADVANCED_FACE('',(#1092),#1142,.F.);
#1191=ADVANCED_FACE('',(#1093),#26,.F.);
#1192=ADVANCED_FACE('',(#1094),#1143,.F.);
#1193=ADVANCED_FACE('',(#1095),#27,.F.);
#1194=ADVANCED_FACE('',(#1096),#1144,.T.);
#1195=ADVANCED_FACE('',(#1097),#28,.F.);
#1196=ADVANCED_FACE('',(#1098),#1145,.T.);
#1197=ADVANCED_FACE('',(#1099),#29,.F.);
#1198=ADVANCED_FACE('',(#1100),#1146,.F.);
#1199=ADVANCED_FACE('',(#1101),#30,.F.);
#1200=ADVANCED_FACE('',(#1102),#1147,.F.);
#1201=ADVANCED_FACE('',(#1103),#31,.F.);
#1202=ADVANCED_FACE('',(#1104),#1148,.T.);
#1203=ADVANCED_FACE('',(#1105),#32,.F.);
#1204=ADVANCED_FACE('',(#1106),#1149,.T.);
#1205=ADVANCED_FACE('',(#1107),#33,.F.);
#1206=ADVANCED_FACE('',(#1108,#1109),#34,.F.);
#1207=ADVANCED_FACE('',(#1110,#1111),#35,.F.);
#1208=ADVANCED_FACE('',(#1112,#1113),#36,.F.);
#1209=ADVANCED_FACE('',(#1114,#1115),#37,.F.);
#1210=CLOSED_SHELL('',(#1150,#1151,#1152,#1153,#1154,#1155,#1156,#1157,
#1158,#1159,#1160,#1161,#1162,#1163,#1164,#1165,#1166,#1167,#1168,#1169,
#1170,#1171,#1172,#1173,#1174,#1175,#1176,#1177,#1178,#1179,#1180,#1181,
#1182,#1183,#1184,#1185,#1186,#1187,#1188,#1189,#1190,#1191,#1192,#1193,
#1194,#1195,#1196,#1197,#1198,#1199,#1200,#1201,#1202,#1203,#1204,#1205,
#1206,#1207,#1208,#1209));
#1211=STYLED_ITEM('',(#1212),#1219);
#1212=PRESENTATION_STYLE_ASSIGNMENT((#1213));
#1213=SURFACE_STYLE_USAGE(.BOTH.,#1214);
#1214=SURFACE_SIDE_STYLE('',(#1215));
#1215=SURFACE_STYLE_FILL_AREA(#1216);
#1216=FILL_AREA_STYLE('',(#1217));
#1217=FILL_AREA_STYLE_COLOUR('',#1218);
#1218=COLOUR_RGB('',0.917647058823529,0.917647058823529,0.917647058823529);
#1219=MANIFOLD_SOLID_BREP('Lid',#1210);
#1220=SHAPE_DEFINITION_REPRESENTATION(#2032,#1221);
#1221=SHAPE_REPRESENTATION('Lid',(#1222),#2027);
#1222=AXIS2_PLACEMENT_3D('',#1679,#1335,#1336);
#1223=AXIS2_PLACEMENT_3D('',#1680,#1337,#1338);
#1224=AXIS2_PLACEMENT_3D('',#1689,#1343,#1344);
#1225=AXIS2_PLACEMENT_3D('',#1698,#1349,#1350);
#1226=AXIS2_PLACEMENT_3D('',#1699,#1351,#1352);
#1227=AXIS2_PLACEMENT_3D('',#1701,#1353,#1354);
#1228=AXIS2_PLACEMENT_3D('',#1703,#1355,#1356);
#1229=AXIS2_PLACEMENT_3D('',#1705,#1357,#1358);
#1230=AXIS2_PLACEMENT_3D('',#1707,#1359,#1360);
#1231=AXIS2_PLACEMENT_3D('',#1712,#1362,#1363);
#1232=AXIS2_PLACEMENT_3D('',#1716,#1365,#1366);
#1233=AXIS2_PLACEMENT_3D('',#1720,#1368,#1369);
#1234=AXIS2_PLACEMENT_3D('',#1723,#1371,#1372);
#1235=AXIS2_PLACEMENT_3D('',#1728,#1374,#1375);
#1236=AXIS2_PLACEMENT_3D('',#1732,#1377,#1378);
#1237=AXIS2_PLACEMENT_3D('',#1736,#1380,#1381);
#1238=AXIS2_PLACEMENT_3D('',#1739,#1383,#1384);
#1239=AXIS2_PLACEMENT_3D('',#1744,#1386,#1387);
#1240=AXIS2_PLACEMENT_3D('',#1748,#1389,#1390);
#1241=AXIS2_PLACEMENT_3D('',#1752,#1392,#1393);
#1242=AXIS2_PLACEMENT_3D('',#1755,#1395,#1396);
#1243=AXIS2_PLACEMENT_3D('',#1760,#1398,#1399);
#1244=AXIS2_PLACEMENT_3D('',#1764,#1401,#1402);
#1245=AXIS2_PLACEMENT_3D('',#1768,#1404,#1405);
#1246=AXIS2_PLACEMENT_3D('',#1771,#1407,#1408);
#1247=AXIS2_PLACEMENT_3D('',#1776,#1410,#1411);
#1248=AXIS2_PLACEMENT_3D('',#1780,#1413,#1414);
#1249=AXIS2_PLACEMENT_3D('',#1784,#1416,#1417);
#1250=AXIS2_PLACEMENT_3D('',#1787,#1419,#1420);
#1251=AXIS2_PLACEMENT_3D('',#1806,#1430,#1431);
#1252=AXIS2_PLACEMENT_3D('',#1809,#1433,#1434);
#1253=AXIS2_PLACEMENT_3D('',#1813,#1437,#1438);
#1254=AXIS2_PLACEMENT_3D('',#1817,#1441,#1442);
#1255=AXIS2_PLACEMENT_3D('',#1821,#1445,#1446);
#1256=AXIS2_PLACEMENT_3D('',#1825,#1449,#1450);
#1257=AXIS2_PLACEMENT_3D('',#1826,#1451,#1452);
#1258=AXIS2_PLACEMENT_3D('',#1828,#1453,#1454);
#1259=AXIS2_PLACEMENT_3D('',#1830,#1455,#1456);
#1260=AXIS2_PLACEMENT_3D('',#1832,#1457,#1458);
#1261=AXIS2_PLACEMENT_3D('',#1843,#1464,#1465);
#1262=AXIS2_PLACEMENT_3D('',#1847,#1467,#1468);
#1263=AXIS2_PLACEMENT_3D('',#1851,#1470,#1471);
#1264=AXIS2_PLACEMENT_3D('',#1855,#1473,#1474);
#1265=AXIS2_PLACEMENT_3D('',#1859,#1476,#1477);
#1266=AXIS2_PLACEMENT_3D('',#1863,#1479,#1480);
#1267=AXIS2_PLACEMENT_3D('',#1867,#1482,#1483);
#1268=AXIS2_PLACEMENT_3D('',#1871,#1485,#1486);
#1269=AXIS2_PLACEMENT_3D('',#1875,#1488,#1489);
#1270=AXIS2_PLACEMENT_3D('',#1879,#1491,#1492);
#1271=AXIS2_PLACEMENT_3D('',#1883,#1494,#1495);
#1272=AXIS2_PLACEMENT_3D('',#1887,#1497,#1498);
#1273=AXIS2_PLACEMENT_3D('',#1891,#1500,#1501);
#1274=AXIS2_PLACEMENT_3D('',#1895,#1503,#1504);
#1275=AXIS2_PLACEMENT_3D('',#1899,#1506,#1507);
#1276=AXIS2_PLACEMENT_3D('',#1903,#1509,#1510);
#1277=AXIS2_PLACEMENT_3D('',#1907,#1512,#1513);
#1278=AXIS2_PLACEMENT_3D('',#1911,#1515,#1516);
#1279=AXIS2_PLACEMENT_3D('',#1915,#1518,#1519);
#1280=AXIS2_PLACEMENT_3D('',#1919,#1521,#1522);
#1281=AXIS2_PLACEMENT_3D('',#1923,#1524,#1525);
#1282=AXIS2_PLACEMENT_3D('',#1927,#1527,#1528);
#1283=AXIS2_PLACEMENT_3D('',#1928,#1529,#1530);
#1284=AXIS2_PLACEMENT_3D('',#1930,#1532,#1533);
#1285=AXIS2_PLACEMENT_3D('',#1932,#1535,#1536);
#1286=AXIS2_PLACEMENT_3D('',#1933,#1537,#1538);
#1287=AXIS2_PLACEMENT_3D('',#1936,#1541,#1542);
#1288=AXIS2_PLACEMENT_3D('',#1938,#1544,#1545);
#1289=AXIS2_PLACEMENT_3D('',#1940,#1547,#1548);
#1290=AXIS2_PLACEMENT_3D('',#1941,#1549,#1550);
#1291=AXIS2_PLACEMENT_3D('',#1942,#1551,#1552);
#1292=AXIS2_PLACEMENT_3D('',#1945,#1555,#1556);
#1293=AXIS2_PLACEMENT_3D('',#1947,#1558,#1559);
#1294=AXIS2_PLACEMENT_3D('',#1949,#1561,#1562);
#1295=AXIS2_PLACEMENT_3D('',#1951,#1564,#1565);
#1296=AXIS2_PLACEMENT_3D('',#1953,#1567,#1568);
#1297=AXIS2_PLACEMENT_3D('',#1955,#1570,#1571);
#1298=AXIS2_PLACEMENT_3D('',#1957,#1573,#1574);
#1299=AXIS2_PLACEMENT_3D('',#1958,#1575,#1576);
#1300=AXIS2_PLACEMENT_3D('',#1961,#1579,#1580);
#1301=AXIS2_PLACEMENT_3D('',#1963,#1582,#1583);
#1302=AXIS2_PLACEMENT_3D('',#1965,#1585,#1586);
#1303=AXIS2_PLACEMENT_3D('',#1967,#1588,#1589);
#1304=AXIS2_PLACEMENT_3D('',#1969,#1591,#1592);
#1305=AXIS2_PLACEMENT_3D('',#1971,#1594,#1595);
#1306=AXIS2_PLACEMENT_3D('',#1973,#1597,#1598);
#1307=AXIS2_PLACEMENT_3D('',#1974,#1599,#1600);
#1308=AXIS2_PLACEMENT_3D('',#1977,#1603,#1604);
#1309=AXIS2_PLACEMENT_3D('',#1979,#1606,#1607);
#1310=AXIS2_PLACEMENT_3D('',#1981,#1609,#1610);
#1311=AXIS2_PLACEMENT_3D('',#1983,#1612,#1613);
#1312=AXIS2_PLACEMENT_3D('',#1985,#1615,#1616);
#1313=AXIS2_PLACEMENT_3D('',#1987,#1618,#1619);
#1314=AXIS2_PLACEMENT_3D('',#1989,#1621,#1622);
#1315=AXIS2_PLACEMENT_3D('',#1990,#1623,#1624);
#1316=AXIS2_PLACEMENT_3D('',#1993,#1627,#1628);
#1317=AXIS2_PLACEMENT_3D('',#1995,#1630,#1631);
#1318=AXIS2_PLACEMENT_3D('',#1997,#1633,#1634);
#1319=AXIS2_PLACEMENT_3D('',#1999,#1636,#1637);
#1320=AXIS2_PLACEMENT_3D('',#2001,#1639,#1640);
#1321=AXIS2_PLACEMENT_3D('',#2003,#1642,#1643);
#1322=AXIS2_PLACEMENT_3D('',#2005,#1645,#1646);
#1323=AXIS2_PLACEMENT_3D('',#2006,#1647,#1648);
#1324=AXIS2_PLACEMENT_3D('',#2009,#1651,#1652);
#1325=AXIS2_PLACEMENT_3D('',#2011,#1654,#1655);
#1326=AXIS2_PLACEMENT_3D('',#2013,#1657,#1658);
#1327=AXIS2_PLACEMENT_3D('',#2015,#1660,#1661);
#1328=AXIS2_PLACEMENT_3D('',#2017,#1663,#1664);
#1329=AXIS2_PLACEMENT_3D('',#2019,#1666,#1667);
#1330=AXIS2_PLACEMENT_3D('',#2021,#1669,#1670);
#1331=AXIS2_PLACEMENT_3D('',#2022,#1671,#1672);
#1332=AXIS2_PLACEMENT_3D('',#2023,#1673,#1674);
#1333=AXIS2_PLACEMENT_3D('',#2024,#1675,#1676);
#1334=AXIS2_PLACEMENT_3D('',#2025,#1677,#1678);
#1335=DIRECTION('',(0.,0.,1.));
#1336=DIRECTION('',(1.,0.,0.));
#1337=DIRECTION('',(0.,1.,0.));
#1338=DIRECTION('',(-1.,0.,0.));
#1339=DIRECTION('',(-1.,0.,0.));
#1340=DIRECTION('',(0.,0.,1.));
#1341=DIRECTION('',(-1.,0.,0.));
#1342=DIRECTION('',(0.,0.,1.));
#1343=DIRECTION('',(0.,1.,0.));
#1344=DIRECTION('',(-1.,0.,0.));
#1345=DIRECTION('',(0.,0.,1.));
#1346=DIRECTION('',(-1.,0.,0.));
#1347=DIRECTION('',(0.,0.,1.));
#1348=DIRECTION('',(1.,0.,0.));
#1349=DIRECTION('',(0.,0.,1.));
#1350=DIRECTION('',(1.,0.,0.));
#1351=DIRECTION('',(0.,0.,1.));
#1352=DIRECTION('',(1.,0.,0.));
#1353=DIRECTION('',(0.,0.,1.));
#1354=DIRECTION('',(1.,0.,0.));
#1355=DIRECTION('',(0.,0.,1.));
#1356=DIRECTION('',(1.,0.,0.));
#1357=DIRECTION('',(0.,0.,1.));
#1358=DIRECTION('',(1.,0.,0.));
#1359=DIRECTION('',(0.,0.,1.));
#1360=DIRECTION('',(1.,0.,0.));
#1361=DIRECTION('',(0.,-1.,0.));
#1362=DIRECTION('',(0.,0.,1.));
#1363=DIRECTION('',(1.,0.,0.));
#1364=DIRECTION('',(1.,0.,0.));
#1365=DIRECTION('',(0.,0.,1.));
#1366=DIRECTION('',(1.,0.,0.));
#1367=DIRECTION('',(0.,-1.,0.));
#1368=DIRECTION('',(0.,0.,1.));
#1369=DIRECTION('',(1.,0.,0.));
#1370=DIRECTION('',(1.,0.,0.));
#1371=DIRECTION('',(0.,0.,1.));
#1372=DIRECTION('',(1.,0.,0.));
#1373=DIRECTION('',(0.,-1.,0.));
#1374=DIRECTION('',(0.,0.,1.));
#1375=DIRECTION('',(1.,0.,0.));
#1376=DIRECTION('',(1.,0.,0.));
#1377=DIRECTION('',(0.,0.,1.));
#1378=DIRECTION('',(1.,0.,0.));
#1379=DIRECTION('',(0.,-1.,0.));
#1380=DIRECTION('',(0.,0.,1.));
#1381=DIRECTION('',(1.,0.,0.));
#1382=DIRECTION('',(1.,0.,0.));
#1383=DIRECTION('',(0.,0.,1.));
#1384=DIRECTION('',(1.,0.,0.));
#1385=DIRECTION('',(0.,-1.,0.));
#1386=DIRECTION('',(0.,0.,1.));
#1387=DIRECTION('',(1.,0.,0.));
#1388=DIRECTION('',(1.,0.,0.));
#1389=DIRECTION('',(0.,0.,1.));
#1390=DIRECTION('',(1.,0.,0.));
#1391=DIRECTION('',(0.,-1.,0.));
#1392=DIRECTION('',(0.,0.,1.));
#1393=DIRECTION('',(1.,0.,0.));
#1394=DIRECTION('',(1.,0.,0.));
#1395=DIRECTION('',(0.,0.,1.));
#1396=DIRECTION('',(1.,0.,0.));
#1397=DIRECTION('',(0.,-1.,0.));
#1398=DIRECTION('',(0.,0.,1.));
#1399=DIRECTION('',(1.,0.,0.));
#1400=DIRECTION('',(1.,0.,0.));
#1401=DIRECTION('',(0.,0.,1.));
#1402=DIRECTION('',(1.,0.,0.));
#1403=DIRECTION('',(0.,-1.,0.));
#1404=DIRECTION('',(0.,0.,1.));
#1405=DIRECTION('',(1.,0.,0.));
#1406=DIRECTION('',(1.,0.,0.));
#1407=DIRECTION('',(0.,0.,1.));
#1408=DIRECTION('',(1.,0.,0.));
#1409=DIRECTION('',(0.,-1.,0.));
#1410=DIRECTION('',(0.,0.,1.));
#1411=DIRECTION('',(1.,0.,0.));
#1412=DIRECTION('',(1.,0.,0.));
#1413=DIRECTION('',(0.,0.,1.));
#1414=DIRECTION('',(1.,0.,0.));
#1415=DIRECTION('',(0.,-1.,0.));
#1416=DIRECTION('',(0.,0.,1.));
#1417=DIRECTION('',(1.,0.,0.));
#1418=DIRECTION('',(1.,0.,0.));
#1419=DIRECTION('',(0.,0.,1.));
#1420=DIRECTION('',(1.,0.,0.));
#1421=DIRECTION('',(0.,-1.,0.));
#1422=DIRECTION('',(0.,-1.,0.));
#1423=DIRECTION('',(-1.,0.,0.));
#1424=DIRECTION('',(0.,-1.,0.));
#1425=DIRECTION('',(-1.,0.,0.));
#1426=DIRECTION('',(0.,-1.,0.));
#1427=DIRECTION('',(0.,-1.,0.));
#1428=DIRECTION('',(-1.,0.,0.));
#1429=DIRECTION('',(0.,-1.,0.));
#1430=DIRECTION('',(0.,0.,1.));
#1431=DIRECTION('',(1.,0.,0.));
#1432=DIRECTION('',(1.,0.,0.));
#1433=DIRECTION('',(-1.,0.,0.));
#1434=DIRECTION('',(0.,-1.,0.));
#1435=DIRECTION('',(0.,0.,1.));
#1436=DIRECTION('',(0.,1.,0.));
#1437=DIRECTION('',(0.,1.,0.));
#1438=DIRECTION('',(-1.,0.,0.));
#1439=DIRECTION('',(0.,0.,1.));
#1440=DIRECTION('',(1.,0.,0.));
#1441=DIRECTION('',(-1.,0.,0.));
#1442=DIRECTION('',(0.,-1.,0.));
#1443=DIRECTION('',(0.,0.,1.));
#1444=DIRECTION('',(0.,1.,0.));
#1445=DIRECTION('',(0.,1.,0.));
#1446=DIRECTION('',(-1.,0.,0.));
#1447=DIRECTION('',(0.,0.,1.));
#1448=DIRECTION('',(1.,0.,0.));
#1449=DIRECTION('',(0.,0.,1.));
#1450=DIRECTION('',(1.,0.,0.));
#1451=DIRECTION('',(0.,0.,1.));
#1452=DIRECTION('',(1.,0.,0.));
#1453=DIRECTION('',(0.,0.,1.));
#1454=DIRECTION('',(1.,0.,0.));
#1455=DIRECTION('',(0.,0.,-1.));
#1456=DIRECTION('',(1.,0.,0.));
#1457=DIRECTION('',(0.,0.,-1.));
#1458=DIRECTION('',(1.,0.,0.));
#1459=DIRECTION('',(0.,-1.,0.));
#1460=DIRECTION('',(-1.,0.,0.));
#1461=DIRECTION('',(0.,-1.,0.));
#1462=DIRECTION('',(0.,-1.,0.));
#1463=DIRECTION('',(0.,-1.,0.));
#1464=DIRECTION('',(0.,0.,1.));
#1465=DIRECTION('',(1.,0.,0.));
#1466=DIRECTION('',(1.,0.,0.));
#1467=DIRECTION('',(0.,0.,1.));
#1468=DIRECTION('',(1.,0.,0.));
#1469=DIRECTION('',(0.,-1.,0.));
#1470=DIRECTION('',(0.,0.,1.));
#1471=DIRECTION('',(1.,0.,0.));
#1472=DIRECTION('',(1.,0.,0.));
#1473=DIRECTION('',(0.,0.,1.));
#1474=DIRECTION('',(1.,0.,0.));
#1475=DIRECTION('',(0.,-1.,0.));
#1476=DIRECTION('',(0.,0.,1.));
#1477=DIRECTION('',(1.,0.,0.));
#1478=DIRECTION('',(1.,0.,0.));
#1479=DIRECTION('',(0.,0.,1.));
#1480=DIRECTION('',(1.,0.,0.));
#1481=DIRECTION('',(0.,-1.,0.));
#1482=DIRECTION('',(0.,0.,1.));
#1483=DIRECTION('',(1.,0.,0.));
#1484=DIRECTION('',(1.,0.,0.));
#1485=DIRECTION('',(0.,0.,1.));
#1486=DIRECTION('',(1.,0.,0.));
#1487=DIRECTION('',(0.,-1.,0.));
#1488=DIRECTION('',(0.,0.,1.));
#1489=DIRECTION('',(1.,0.,0.));
#1490=DIRECTION('',(1.,0.,0.));
#1491=DIRECTION('',(0.,0.,1.));
#1492=DIRECTION('',(1.,0.,0.));
#1493=DIRECTION('',(0.,-1.,0.));
#1494=DIRECTION('',(0.,0.,1.));
#1495=DIRECTION('',(1.,0.,0.));
#1496=DIRECTION('',(1.,0.,0.));
#1497=DIRECTION('',(0.,0.,1.));
#1498=DIRECTION('',(1.,0.,0.));
#1499=DIRECTION('',(0.,-1.,0.));
#1500=DIRECTION('',(0.,0.,1.));
#1501=DIRECTION('',(1.,0.,0.));
#1502=DIRECTION('',(1.,0.,0.));
#1503=DIRECTION('',(0.,0.,1.));
#1504=DIRECTION('',(1.,0.,0.));
#1505=DIRECTION('',(0.,-1.,0.));
#1506=DIRECTION('',(0.,0.,1.));
#1507=DIRECTION('',(1.,0.,0.));
#1508=DIRECTION('',(1.,0.,0.));
#1509=DIRECTION('',(0.,0.,1.));
#1510=DIRECTION('',(1.,0.,0.));
#1511=DIRECTION('',(0.,-1.,0.));
#1512=DIRECTION('',(0.,0.,1.));
#1513=DIRECTION('',(1.,0.,0.));
#1514=DIRECTION('',(1.,0.,0.));
#1515=DIRECTION('',(0.,0.,1.));
#1516=DIRECTION('',(1.,0.,0.));
#1517=DIRECTION('',(0.,-1.,0.));
#1518=DIRECTION('',(0.,0.,1.));
#1519=DIRECTION('',(1.,0.,0.));
#1520=DIRECTION('',(1.,0.,0.));
#1521=DIRECTION('',(0.,0.,1.));
#1522=DIRECTION('',(1.,0.,0.));
#1523=DIRECTION('',(0.,-1.,0.));
#1524=DIRECTION('',(0.,0.,1.));
#1525=DIRECTION('',(1.,0.,0.));
#1526=DIRECTION('',(1.,0.,0.));
#1527=DIRECTION('',(0.,0.,1.));
#1528=DIRECTION('',(1.,0.,0.));
#1529=DIRECTION('',(-1.,0.,0.));
#1530=DIRECTION('',(0.,-1.,0.));
#1531=DIRECTION('',(0.,0.,1.));
#1532=DIRECTION('',(0.,1.,0.));
#1533=DIRECTION('',(-1.,0.,0.));
#1534=DIRECTION('',(0.,0.,1.));
#1535=DIRECTION('',(-1.,0.,0.));
#1536=DIRECTION('',(0.,-1.,0.));
#1537=DIRECTION('',(0.,0.,1.));
#1538=DIRECTION('',(1.,0.,0.));
#1539=DIRECTION('',(0.,0.,1.));
#1540=DIRECTION('',(0.,0.,1.));
#1541=DIRECTION('',(0.,-1.,0.));
#1542=DIRECTION('',(1.,0.,0.));
#1543=DIRECTION('',(0.,0.,1.));
#1544=DIRECTION('',(0.,0.,1.));
#1545=DIRECTION('',(1.,0.,0.));
#1546=DIRECTION('',(0.,0.,1.));
#1547=DIRECTION('',(-1.,0.,0.));
#1548=DIRECTION('',(0.,-1.,0.));
#1549=DIRECTION('',(-1.,0.,0.));
#1550=DIRECTION('',(0.,-1.,0.));
#1551=DIRECTION('',(-1.,0.,0.));
#1552=DIRECTION('',(0.,-1.,0.));
#1553=DIRECTION('',(0.,0.,1.));
#1554=DIRECTION('',(0.,0.,1.));
#1555=DIRECTION('',(0.,0.,1.));
#1556=DIRECTION('',(1.,0.,0.));
#1557=DIRECTION('',(0.,0.,1.));
#1558=DIRECTION('',(0.,-1.,0.));
#1559=DIRECTION('',(1.,0.,0.));
#1560=DIRECTION('',(0.,0.,1.));
#1561=DIRECTION('',(0.,0.,1.));
#1562=DIRECTION('',(1.,0.,0.));
#1563=DIRECTION('',(0.,0.,1.));
#1564=DIRECTION('',(-1.,0.,0.));
#1565=DIRECTION('',(0.,-1.,0.));
#1566=DIRECTION('',(0.,0.,1.));
#1567=DIRECTION('',(0.,0.,1.));
#1568=DIRECTION('',(1.,0.,0.));
#1569=DIRECTION('',(0.,0.,1.));
#1570=DIRECTION('',(0.,-1.,0.));
#1571=DIRECTION('',(1.,0.,0.));
#1572=DIRECTION('',(0.,0.,1.));
#1573=DIRECTION('',(0.,0.,1.));
#1574=DIRECTION('',(1.,0.,0.));
#1575=DIRECTION('',(-1.,0.,0.));
#1576=DIRECTION('',(0.,-1.,0.));
#1577=DIRECTION('',(0.,0.,1.));
#1578=DIRECTION('',(0.,0.,1.));
#1579=DIRECTION('',(0.,0.,1.));
#1580=DIRECTION('',(1.,0.,0.));
#1581=DIRECTION('',(0.,0.,1.));
#1582=DIRECTION('',(0.,-1.,0.));
#1583=DIRECTION('',(1.,0.,0.));
#1584=DIRECTION('',(0.,0.,1.));
#1585=DIRECTION('',(0.,0.,1.));
#1586=DIRECTION('',(1.,0.,0.));
#1587=DIRECTION('',(0.,0.,1.));
#1588=DIRECTION('',(-1.,0.,0.));
#1589=DIRECTION('',(0.,-1.,0.));
#1590=DIRECTION('',(0.,0.,1.));
#1591=DIRECTION('',(0.,0.,1.));
#1592=DIRECTION('',(1.,0.,0.));
#1593=DIRECTION('',(0.,0.,1.));
#1594=DIRECTION('',(0.,-1.,0.));
#1595=DIRECTION('',(1.,0.,0.));
#1596=DIRECTION('',(0.,0.,1.));
#1597=DIRECTION('',(0.,0.,1.));
#1598=DIRECTION('',(1.,0.,0.));
#1599=DIRECTION('',(-1.,0.,0.));
#1600=DIRECTION('',(0.,-1.,0.));
#1601=DIRECTION('',(0.,0.,1.));
#1602=DIRECTION('',(0.,0.,1.));
#1603=DIRECTION('',(0.,0.,1.));
#1604=DIRECTION('',(1.,0.,0.));
#1605=DIRECTION('',(0.,0.,1.));
#1606=DIRECTION('',(0.,-1.,0.));
#1607=DIRECTION('',(1.,0.,0.));
#1608=DIRECTION('',(0.,0.,1.));
#1609=DIRECTION('',(0.,0.,1.));
#1610=DIRECTION('',(1.,0.,0.));
#1611=DIRECTION('',(0.,0.,1.));
#1612=DIRECTION('',(-1.,0.,0.));
#1613=DIRECTION('',(0.,-1.,0.));
#1614=DIRECTION('',(0.,0.,1.));
#1615=DIRECTION('',(0.,0.,1.));
#1616=DIRECTION('',(1.,0.,0.));
#1617=DIRECTION('',(0.,0.,1.));
#1618=DIRECTION('',(0.,-1.,0.));
#1619=DIRECTION('',(1.,0.,0.));
#1620=DIRECTION('',(0.,0.,1.));
#1621=DIRECTION('',(0.,0.,1.));
#1622=DIRECTION('',(1.,0.,0.));
#1623=DIRECTION('',(-1.,0.,0.));
#1624=DIRECTION('',(0.,-1.,0.));
#1625=DIRECTION('',(0.,0.,1.));
#1626=DIRECTION('',(0.,0.,1.));
#1627=DIRECTION('',(0.,0.,1.));
#1628=DIRECTION('',(1.,0.,0.));
#1629=DIRECTION('',(0.,0.,1.));
#1630=DIRECTION('',(0.,-1.,0.));
#1631=DIRECTION('',(1.,0.,0.));
#1632=DIRECTION('',(0.,0.,1.));
#1633=DIRECTION('',(0.,0.,1.));
#1634=DIRECTION('',(1.,0.,0.));
#1635=DIRECTION('',(0.,0.,1.));
#1636=DIRECTION('',(-1.,0.,0.));
#1637=DIRECTION('',(0.,-1.,0.));
#1638=DIRECTION('',(0.,0.,1.));
#1639=DIRECTION('',(0.,0.,1.));
#1640=DIRECTION('',(1.,0.,0.));
#1641=DIRECTION('',(0.,0.,1.));
#1642=DIRECTION('',(0.,-1.,0.));
#1643=DIRECTION('',(1.,0.,0.));
#1644=DIRECTION('',(0.,0.,1.));
#1645=DIRECTION('',(0.,0.,1.));
#1646=DIRECTION('',(1.,0.,0.));
#1647=DIRECTION('',(-1.,0.,0.));
#1648=DIRECTION('',(0.,-1.,0.));
#1649=DIRECTION('',(0.,0.,1.));
#1650=DIRECTION('',(0.,0.,1.));
#1651=DIRECTION('',(0.,0.,1.));
#1652=DIRECTION('',(1.,0.,0.));
#1653=DIRECTION('',(0.,0.,1.));
#1654=DIRECTION('',(0.,-1.,0.));
#1655=DIRECTION('',(1.,0.,0.));
#1656=DIRECTION('',(0.,0.,1.));
#1657=DIRECTION('',(0.,0.,1.));
#1658=DIRECTION('',(1.,0.,0.));
#1659=DIRECTION('',(0.,0.,1.));
#1660=DIRECTION('',(-1.,0.,0.));
#1661=DIRECTION('',(0.,-1.,0.));
#1662=DIRECTION('',(0.,0.,1.));
#1663=DIRECTION('',(0.,0.,1.));
#1664=DIRECTION('',(1.,0.,0.));
#1665=DIRECTION('',(0.,0.,1.));
#1666=DIRECTION('',(0.,-1.,0.));
#1667=DIRECTION('',(1.,0.,0.));
#1668=DIRECTION('',(0.,0.,1.));
#1669=DIRECTION('',(0.,0.,1.));
#1670=DIRECTION('',(1.,0.,0.));
#1671=DIRECTION('',(0.,0.,1.));
#1672=DIRECTION('',(1.,0.,0.));
#1673=DIRECTION('',(0.,0.,1.));
#1674=DIRECTION('',(1.,0.,0.));
#1675=DIRECTION('',(0.,0.,1.));
#1676=DIRECTION('',(1.,0.,0.));
#1677=DIRECTION('',(0.,0.,1.));
#1678=DIRECTION('',(1.,0.,0.));
#1679=CARTESIAN_POINT('',(0.,0.,0.));
#1680=CARTESIAN_POINT('',(0.,0.0107717774808407,0.0157));
#1681=CARTESIAN_POINT('',(0.,0.0107717774808407,0.0157));
#1682=CARTESIAN_POINT('',(0.00831567775458098,0.0107717774808407,0.0157));
#1683=CARTESIAN_POINT('',(0.007,0.0107717774808407,0.0157));
#1684=CARTESIAN_POINT('',(0.007,0.0107717774808407,0.0157));
#1685=CARTESIAN_POINT('',(0.007,0.0107717774808407,0.0172));
#1686=CARTESIAN_POINT('',(0.,0.0107717774808407,0.0172));
#1687=CARTESIAN_POINT('',(0.00831567775458098,0.0107717774808407,0.0172));
#1688=CARTESIAN_POINT('',(0.00831567775458098,0.0107717774808407,0.0157));
#1689=CARTESIAN_POINT('',(0.,0.0295,0.0157));
#1690=CARTESIAN_POINT('',(-0.00831567775458098,0.0295,0.0157));
#1691=CARTESIAN_POINT('',(-0.00831567775458098,0.0295,0.0157));
#1692=CARTESIAN_POINT('',(-0.00831567775458098,0.0295,0.0172));
#1693=CARTESIAN_POINT('',(0.,0.0295,0.0157));
#1694=CARTESIAN_POINT('',(-0.039,0.0295,0.0157));
#1695=CARTESIAN_POINT('',(-0.039,0.0295,0.0157));
#1696=CARTESIAN_POINT('',(-0.039,0.0295,0.0172));
#1697=CARTESIAN_POINT('',(0.,0.0295,0.0172));
#1698=CARTESIAN_POINT('',(0.,0.,0.0157));
#1699=CARTESIAN_POINT('',(-0.0331168864023139,0.0241897818626596,0.0157));
#1700=CARTESIAN_POINT('',(-0.0307668864023139,0.0241897818626596,0.0157));
#1701=CARTESIAN_POINT('',(0.0331168864023139,-0.0241897818626596,0.0157));
#1702=CARTESIAN_POINT('',(0.0354668864023139,-0.0241897818626596,0.0157));
#1703=CARTESIAN_POINT('',(-0.0331168864023139,-0.0241897818626596,0.0157));
#1704=CARTESIAN_POINT('',(-0.0307668864023139,-0.0241897818626596,0.0157));
#1705=CARTESIAN_POINT('',(0.0331168864023139,0.0241897818626596,0.0157));
#1706=CARTESIAN_POINT('',(0.0354668864023139,0.0241897818626596,0.0157));
#1707=CARTESIAN_POINT('',(0.01255,-0.003025,0.0157));
#1708=CARTESIAN_POINT('',(0.01255,-0.002525,0.0157));
#1709=CARTESIAN_POINT('',(0.01205,-0.003025,0.0157));
#1710=CARTESIAN_POINT('',(0.01205,0.,0.0157));
#1711=CARTESIAN_POINT('',(0.01205,-0.016025,0.0157));
#1712=CARTESIAN_POINT('',(0.01255,-0.016025,0.0157));
#1713=CARTESIAN_POINT('',(0.01255,-0.016525,0.0157));
#1714=CARTESIAN_POINT('',(0.,-0.016525,0.0157));
#1715=CARTESIAN_POINT('',(0.02555,-0.016525,0.0157));
#1716=CARTESIAN_POINT('',(0.02555,-0.016025,0.0157));
#1717=CARTESIAN_POINT('',(0.02605,-0.016025,0.0157));
#1718=CARTESIAN_POINT('',(0.02605,0.,0.0157));
#1719=CARTESIAN_POINT('',(0.02605,-0.003025,0.0157));
#1720=CARTESIAN_POINT('',(0.02555,-0.003025,0.0157));
#1721=CARTESIAN_POINT('',(0.02555,-0.002525,0.0157));
#1722=CARTESIAN_POINT('',(0.,-0.002525,0.0157));
#1723=CARTESIAN_POINT('',(-0.0065,-0.003025,0.0157));
#1724=CARTESIAN_POINT('',(-0.0065,-0.002525,0.0157));
#1725=CARTESIAN_POINT('',(-0.007,-0.003025,0.0157));
#1726=CARTESIAN_POINT('',(-0.007,0.,0.0157));
#1727=CARTESIAN_POINT('',(-0.007,-0.016025,0.0157));
#1728=CARTESIAN_POINT('',(-0.0065,-0.016025,0.0157));
#1729=CARTESIAN_POINT('',(-0.0065,-0.016525,0.0157));
#1730=CARTESIAN_POINT('',(0.,-0.016525,0.0157));
#1731=CARTESIAN_POINT('',(0.0065,-0.016525,0.0157));
#1732=CARTESIAN_POINT('',(0.0065,-0.016025,0.0157));
#1733=CARTESIAN_POINT('',(0.007,-0.016025,0.0157));
#1734=CARTESIAN_POINT('',(0.007,0.,0.0157));
#1735=CARTESIAN_POINT('',(0.007,-0.003025,0.0157));
#1736=CARTESIAN_POINT('',(0.0065,-0.003025,0.0157));
#1737=CARTESIAN_POINT('',(0.0065,-0.002525,0.0157));
#1738=CARTESIAN_POINT('',(0.,-0.002525,0.0157));
#1739=CARTESIAN_POINT('',(-0.02555,-0.003025,0.0157));
#1740=CARTESIAN_POINT('',(-0.02555,-0.002525,0.0157));
#1741=CARTESIAN_POINT('',(-0.02605,-0.003025,0.0157));
#1742=CARTESIAN_POINT('',(-0.02605,0.,0.0157));
#1743=CARTESIAN_POINT('',(-0.02605,-0.016025,0.0157));
#1744=CARTESIAN_POINT('',(-0.02555,-0.016025,0.0157));
#1745=CARTESIAN_POINT('',(-0.02555,-0.016525,0.0157));
#1746=CARTESIAN_POINT('',(0.,-0.016525,0.0157));
#1747=CARTESIAN_POINT('',(-0.01255,-0.016525,0.0157));
#1748=CARTESIAN_POINT('',(-0.01255,-0.016025,0.0157));
#1749=CARTESIAN_POINT('',(-0.01205,-0.016025,0.0157));
#1750=CARTESIAN_POINT('',(-0.01205,0.,0.0157));
#1751=CARTESIAN_POINT('',(-0.01205,-0.003025,0.0157));
#1752=CARTESIAN_POINT('',(-0.01255,-0.003025,0.0157));
#1753=CARTESIAN_POINT('',(-0.01255,-0.002525,0.0157));
#1754=CARTESIAN_POINT('',(0.,-0.002525,0.0157));
#1755=CARTESIAN_POINT('',(-0.02555,0.016025,0.0157));
#1756=CARTESIAN_POINT('',(-0.02555,0.016525,0.0157));
#1757=CARTESIAN_POINT('',(-0.02605,0.016025,0.0157));
#1758=CARTESIAN_POINT('',(-0.02605,0.,0.0157));
#1759=CARTESIAN_POINT('',(-0.02605,0.003025,0.0157));
#1760=CARTESIAN_POINT('',(-0.02555,0.003025,0.0157));
#1761=CARTESIAN_POINT('',(-0.02555,0.002525,0.0157));
#1762=CARTESIAN_POINT('',(0.,0.002525,0.0157));
#1763=CARTESIAN_POINT('',(-0.01255,0.002525,0.0157));
#1764=CARTESIAN_POINT('',(-0.01255,0.003025,0.0157));
#1765=CARTESIAN_POINT('',(-0.01205,0.003025,0.0157));
#1766=CARTESIAN_POINT('',(-0.01205,0.,0.0157));
#1767=CARTESIAN_POINT('',(-0.01205,0.016025,0.0157));
#1768=CARTESIAN_POINT('',(-0.01255,0.016025,0.0157));
#1769=CARTESIAN_POINT('',(-0.01255,0.016525,0.0157));
#1770=CARTESIAN_POINT('',(0.,0.016525,0.0157));
#1771=CARTESIAN_POINT('',(0.01255,0.016025,0.0157));
#1772=CARTESIAN_POINT('',(0.01255,0.016525,0.0157));
#1773=CARTESIAN_POINT('',(0.01205,0.016025,0.0157));
#1774=CARTESIAN_POINT('',(0.01205,0.,0.0157));
#1775=CARTESIAN_POINT('',(0.01205,0.003025,0.0157));
#1776=CARTESIAN_POINT('',(0.01255,0.003025,0.0157));
#1777=CARTESIAN_POINT('',(0.01255,0.002525,0.0157));
#1778=CARTESIAN_POINT('',(0.,0.002525,0.0157));
#1779=CARTESIAN_POINT('',(0.02555,0.002525,0.0157));
#1780=CARTESIAN_POINT('',(0.02555,0.003025,0.0157));
#1781=CARTESIAN_POINT('',(0.02605,0.003025,0.0157));
#1782=CARTESIAN_POINT('',(0.02605,0.,0.0157));
#1783=CARTESIAN_POINT('',(0.02605,0.016025,0.0157));
#1784=CARTESIAN_POINT('',(0.02555,0.016025,0.0157));
#1785=CARTESIAN_POINT('',(0.02555,0.016525,0.0157));
#1786=CARTESIAN_POINT('',(0.,0.016525,0.0157));
#1787=CARTESIAN_POINT('',(0.0065,0.003025,0.0157));
#1788=CARTESIAN_POINT('',(0.0065,0.002525,0.0157));
#1789=CARTESIAN_POINT('',(0.007,0.003025,0.0157));
#1790=CARTESIAN_POINT('',(0.007,0.,0.0157));
#1791=CARTESIAN_POINT('',(0.00831567775458098,0.0222716275602579,0.0157));
#1792=CARTESIAN_POINT('',(0.00831567775458098,0.0295,0.0157));
#1793=CARTESIAN_POINT('',(0.,0.0295,0.0157));
#1794=CARTESIAN_POINT('',(0.039,0.0295,0.0157));
#1795=CARTESIAN_POINT('',(0.039,0.,0.0157));
#1796=CARTESIAN_POINT('',(0.039,-0.0295,0.0157));
#1797=CARTESIAN_POINT('',(0.,-0.0295,0.0157));
#1798=CARTESIAN_POINT('',(-0.039,-0.0295,0.0157));
#1799=CARTESIAN_POINT('',(-0.039,0.,0.0157));
#1800=CARTESIAN_POINT('',(-0.00831567775458098,0.0222716275602579,0.0157));
#1801=CARTESIAN_POINT('',(-0.00831567775458098,0.0107717774808407,0.0157));
#1802=CARTESIAN_POINT('',(0.,0.0107717774808407,0.0157));
#1803=CARTESIAN_POINT('',(-0.007,0.0107717774808407,0.0157));
#1804=CARTESIAN_POINT('',(-0.007,0.,0.0157));
#1805=CARTESIAN_POINT('',(-0.007,0.003025,0.0157));
#1806=CARTESIAN_POINT('',(-0.0065,0.003025,0.0157));
#1807=CARTESIAN_POINT('',(-0.0065,0.002525,0.0157));
#1808=CARTESIAN_POINT('',(0.,0.002525,0.0157));
#1809=CARTESIAN_POINT('',(-0.039,0.,0.0157));
#1810=CARTESIAN_POINT('',(-0.039,-0.0295,0.0157));
#1811=CARTESIAN_POINT('',(-0.039,-0.0295,0.0172));
#1812=CARTESIAN_POINT('',(-0.039,0.,0.0172));
#1813=CARTESIAN_POINT('',(0.,-0.0295,0.0157));
#1814=CARTESIAN_POINT('',(0.039,-0.0295,0.0157));
#1815=CARTESIAN_POINT('',(0.039,-0.0295,0.0172));
#1816=CARTESIAN_POINT('',(0.,-0.0295,0.0172));
#1817=CARTESIAN_POINT('',(0.039,0.,0.0157));
#1818=CARTESIAN_POINT('',(0.039,0.0295,0.0157));
#1819=CARTESIAN_POINT('',(0.039,0.0295,0.0172));
#1820=CARTESIAN_POINT('',(0.039,0.,0.0172));
#1821=CARTESIAN_POINT('',(0.,0.0295,0.0157));
#1822=CARTESIAN_POINT('',(0.00831567775458098,0.0295,0.0157));
#1823=CARTESIAN_POINT('',(0.00831567775458098,0.0295,0.0172));
#1824=CARTESIAN_POINT('',(0.,0.0295,0.0172));
#1825=CARTESIAN_POINT('',(0.,0.,0.0172));
#1826=CARTESIAN_POINT('',(-0.0331168864023139,0.0241897818626596,0.0172));
#1827=CARTESIAN_POINT('',(-0.0307668864023139,0.0241897818626596,0.0172));
#1828=CARTESIAN_POINT('',(0.0331168864023139,-0.0241897818626596,0.0172));
#1829=CARTESIAN_POINT('',(0.0354668864023139,-0.0241897818626596,0.0172));
#1830=CARTESIAN_POINT('',(-0.0331168864023139,-0.0241897818626596,0.0172));
#1831=CARTESIAN_POINT('',(-0.0307668864023139,-0.0241897818626596,0.0172));
#1832=CARTESIAN_POINT('',(0.0331168864023139,0.0241897818626596,0.0172));
#1833=CARTESIAN_POINT('',(0.0354668864023139,0.0241897818626596,0.0172));
#1834=CARTESIAN_POINT('',(-0.007,0.009525,0.0172));
#1835=CARTESIAN_POINT('',(-0.007,0.0107717774808407,0.0172));
#1836=CARTESIAN_POINT('',(-0.007,0.003025,0.0172));
#1837=CARTESIAN_POINT('',(0.,0.0107717774808407,0.0172));
#1838=CARTESIAN_POINT('',(-0.00831567775458098,0.0107717774808407,0.0172));
#1839=CARTESIAN_POINT('',(-0.00831567775458098,0.,0.0172));
#1840=CARTESIAN_POINT('',(0.00831567775458098,0.,0.0172));
#1841=CARTESIAN_POINT('',(0.007,0.009525,0.0172));
#1842=CARTESIAN_POINT('',(0.007,0.003025,0.0172));
#1843=CARTESIAN_POINT('',(0.0065,0.003025,0.0172));
#1844=CARTESIAN_POINT('',(0.0065,0.002525,0.0172));
#1845=CARTESIAN_POINT('',(1.7347234759768E-18,0.002525,0.0172));
#1846=CARTESIAN_POINT('',(-0.0065,0.002525,0.0172));
#1847=CARTESIAN_POINT('',(-0.0065,0.003025,0.0172));
#1848=CARTESIAN_POINT('',(0.01205,-0.009525,0.0172));
#1849=CARTESIAN_POINT('',(0.01205,-0.003025,0.0172));
#1850=CARTESIAN_POINT('',(0.01205,-0.016025,0.0172));
#1851=CARTESIAN_POINT('',(0.01255,-0.003025,0.0172));
#1852=CARTESIAN_POINT('',(0.01255,-0.002525,0.0172));
#1853=CARTESIAN_POINT('',(0.01905,-0.002525,0.0172));
#1854=CARTESIAN_POINT('',(0.02555,-0.002525,0.0172));
#1855=CARTESIAN_POINT('',(0.02555,-0.003025,0.0172));
#1856=CARTESIAN_POINT('',(0.02605,-0.003025,0.0172));
#1857=CARTESIAN_POINT('',(0.02605,-0.009525,0.0172));
#1858=CARTESIAN_POINT('',(0.02605,-0.016025,0.0172));
#1859=CARTESIAN_POINT('',(0.02555,-0.016025,0.0172));
#1860=CARTESIAN_POINT('',(0.02555,-0.016525,0.0172));
#1861=CARTESIAN_POINT('',(0.01905,-0.016525,0.0172));
#1862=CARTESIAN_POINT('',(0.01255,-0.016525,0.0172));
#1863=CARTESIAN_POINT('',(0.01255,-0.016025,0.0172));
#1864=CARTESIAN_POINT('',(-0.007,-0.009525,0.0172));
#1865=CARTESIAN_POINT('',(-0.007,-0.003025,0.0172));
#1866=CARTESIAN_POINT('',(-0.007,-0.016025,0.0172));
#1867=CARTESIAN_POINT('',(-0.0065,-0.003025,0.0172));
#1868=CARTESIAN_POINT('',(-0.0065,-0.002525,0.0172));
#1869=CARTESIAN_POINT('',(1.7347234759768E-18,-0.002525,0.0172));
#1870=CARTESIAN_POINT('',(0.0065,-0.002525,0.0172));
#1871=CARTESIAN_POINT('',(0.0065,-0.003025,0.0172));
#1872=CARTESIAN_POINT('',(0.007,-0.003025,0.0172));
#1873=CARTESIAN_POINT('',(0.007,-0.009525,0.0172));
#1874=CARTESIAN_POINT('',(0.007,-0.016025,0.0172));
#1875=CARTESIAN_POINT('',(0.0065,-0.016025,0.0172));
#1876=CARTESIAN_POINT('',(0.0065,-0.016525,0.0172));
#1877=CARTESIAN_POINT('',(1.7347234759768E-18,-0.016525,0.0172));
#1878=CARTESIAN_POINT('',(-0.0065,-0.016525,0.0172));
#1879=CARTESIAN_POINT('',(-0.0065,-0.016025,0.0172));
#1880=CARTESIAN_POINT('',(-0.02605,-0.009525,0.0172));
#1881=CARTESIAN_POINT('',(-0.02605,-0.003025,0.0172));
#1882=CARTESIAN_POINT('',(-0.02605,-0.016025,0.0172));
#1883=CARTESIAN_POINT('',(-0.02555,-0.003025,0.0172));
#1884=CARTESIAN_POINT('',(-0.02555,-0.002525,0.0172));
#1885=CARTESIAN_POINT('',(-0.01905,-0.002525,0.0172));
#1886=CARTESIAN_POINT('',(-0.01255,-0.002525,0.0172));
#1887=CARTESIAN_POINT('',(-0.01255,-0.003025,0.0172));
#1888=CARTESIAN_POINT('',(-0.01205,-0.003025,0.0172));
#1889=CARTESIAN_POINT('',(-0.01205,-0.009525,0.0172));
#1890=CARTESIAN_POINT('',(-0.01205,-0.016025,0.0172));
#1891=CARTESIAN_POINT('',(-0.01255,-0.016025,0.0172));
#1892=CARTESIAN_POINT('',(-0.01255,-0.016525,0.0172));
#1893=CARTESIAN_POINT('',(-0.01905,-0.016525,0.0172));
#1894=CARTESIAN_POINT('',(-0.02555,-0.016525,0.0172));
#1895=CARTESIAN_POINT('',(-0.02555,-0.016025,0.0172));
#1896=CARTESIAN_POINT('',(-0.02605,0.009525,0.0172));
#1897=CARTESIAN_POINT('',(-0.02605,0.016025,0.0172));
#1898=CARTESIAN_POINT('',(-0.02605,0.003025,0.0172));
#1899=CARTESIAN_POINT('',(-0.02555,0.016025,0.0172));
#1900=CARTESIAN_POINT('',(-0.02555,0.016525,0.0172));
#1901=CARTESIAN_POINT('',(-0.01905,0.016525,0.0172));
#1902=CARTESIAN_POINT('',(-0.01255,0.016525,0.0172));
#1903=CARTESIAN_POINT('',(-0.01255,0.016025,0.0172));
#1904=CARTESIAN_POINT('',(-0.01205,0.016025,0.0172));
#1905=CARTESIAN_POINT('',(-0.01205,0.009525,0.0172));
#1906=CARTESIAN_POINT('',(-0.01205,0.003025,0.0172));
#1907=CARTESIAN_POINT('',(-0.01255,0.003025,0.0172));
#1908=CARTESIAN_POINT('',(-0.01255,0.002525,0.0172));
#1909=CARTESIAN_POINT('',(-0.01905,0.002525,0.0172));
#1910=CARTESIAN_POINT('',(-0.02555,0.002525,0.0172));
#1911=CARTESIAN_POINT('',(-0.02555,0.003025,0.0172));
#1912=CARTESIAN_POINT('',(0.01205,0.009525,0.0172));
#1913=CARTESIAN_POINT('',(0.01205,0.016025,0.0172));
#1914=CARTESIAN_POINT('',(0.01205,0.003025,0.0172));
#1915=CARTESIAN_POINT('',(0.01255,0.016025,0.0172));
#1916=CARTESIAN_POINT('',(0.01255,0.016525,0.0172));
#1917=CARTESIAN_POINT('',(0.01905,0.016525,0.0172));
#1918=CARTESIAN_POINT('',(0.02555,0.016525,0.0172));
#1919=CARTESIAN_POINT('',(0.02555,0.016025,0.0172));
#1920=CARTESIAN_POINT('',(0.02605,0.016025,0.0172));
#1921=CARTESIAN_POINT('',(0.02605,0.009525,0.0172));
#1922=CARTESIAN_POINT('',(0.02605,0.003025,0.0172));
#1923=CARTESIAN_POINT('',(0.02555,0.003025,0.0172));
#1924=CARTESIAN_POINT('',(0.02555,0.002525,0.0172));
#1925=CARTESIAN_POINT('',(0.01905,0.002525,0.0172));
#1926=CARTESIAN_POINT('',(0.01255,0.002525,0.0172));
#1927=CARTESIAN_POINT('',(0.01255,0.003025,0.0172));
#1928=CARTESIAN_POINT('',(-0.00831567775458098,0.0222716275602579,0.0157));
#1929=CARTESIAN_POINT('',(-0.00831567775458098,0.0107717774808407,0.0157));
#1930=CARTESIAN_POINT('',(0.,0.0107717774808407,0.0157));
#1931=CARTESIAN_POINT('',(-0.007,0.0107717774808407,0.0157));
#1932=CARTESIAN_POINT('',(0.00831567775458098,0.0222716275602579,0.0157));
#1933=CARTESIAN_POINT('',(-0.0065,0.003025,0.0172));
#1934=CARTESIAN_POINT('',(-0.007,0.003025,0.0172));
#1935=CARTESIAN_POINT('',(-0.0065,0.002525,0.0172));
#1936=CARTESIAN_POINT('',(1.7347234759768E-18,0.002525,0.0172));
#1937=CARTESIAN_POINT('',(0.0065,0.002525,0.0172));
#1938=CARTESIAN_POINT('',(0.0065,0.003025,0.0172));
#1939=CARTESIAN_POINT('',(0.007,0.003025,0.0172));
#1940=CARTESIAN_POINT('',(0.007,0.009525,0.0172));
#1941=CARTESIAN_POINT('',(-0.007,0.009525,0.0172));
#1942=CARTESIAN_POINT('',(0.01205,0.009525,0.0172));
#1943=CARTESIAN_POINT('',(0.01205,0.016025,0.0172));
#1944=CARTESIAN_POINT('',(0.01205,0.003025,0.0172));
#1945=CARTESIAN_POINT('',(0.01255,0.003025,0.0172));
#1946=CARTESIAN_POINT('',(0.01255,0.002525,0.0172));
#1947=CARTESIAN_POINT('',(0.01905,0.002525,0.0172));
#1948=CARTESIAN_POINT('',(0.02555,0.002525,0.0172));
#1949=CARTESIAN_POINT('',(0.02555,0.003025,0.0172));
#1950=CARTESIAN_POINT('',(0.02605,0.003025,0.0172));
#1951=CARTESIAN_POINT('',(0.02605,0.009525,0.0172));
#1952=CARTESIAN_POINT('',(0.02605,0.016025,0.0172));
#1953=CARTESIAN_POINT('',(0.02555,0.016025,0.0172));
#1954=CARTESIAN_POINT('',(0.02555,0.016525,0.0172));
#1955=CARTESIAN_POINT('',(0.01905,0.016525,0.0172));
#1956=CARTESIAN_POINT('',(0.01255,0.016525,0.0172));
#1957=CARTESIAN_POINT('',(0.01255,0.016025,0.0172));
#1958=CARTESIAN_POINT('',(-0.02605,0.009525,0.0172));
#1959=CARTESIAN_POINT('',(-0.02605,0.016025,0.0172));
#1960=CARTESIAN_POINT('',(-0.02605,0.003025,0.0172));
#1961=CARTESIAN_POINT('',(-0.02555,0.003025,0.0172));
#1962=CARTESIAN_POINT('',(-0.02555,0.002525,0.0172));
#1963=CARTESIAN_POINT('',(-0.01905,0.002525,0.0172));
#1964=CARTESIAN_POINT('',(-0.01255,0.002525,0.0172));
#1965=CARTESIAN_POINT('',(-0.01255,0.003025,0.0172));
#1966=CARTESIAN_POINT('',(-0.01205,0.003025,0.0172));
#1967=CARTESIAN_POINT('',(-0.01205,0.009525,0.0172));
#1968=CARTESIAN_POINT('',(-0.01205,0.016025,0.0172));
#1969=CARTESIAN_POINT('',(-0.01255,0.016025,0.0172));
#1970=CARTESIAN_POINT('',(-0.01255,0.016525,0.0172));
#1971=CARTESIAN_POINT('',(-0.01905,0.016525,0.0172));
#1972=CARTESIAN_POINT('',(-0.02555,0.016525,0.0172));
#1973=CARTESIAN_POINT('',(-0.02555,0.016025,0.0172));
#1974=CARTESIAN_POINT('',(-0.02605,-0.009525,0.0172));
#1975=CARTESIAN_POINT('',(-0.02605,-0.003025,0.0172));
#1976=CARTESIAN_POINT('',(-0.02605,-0.016025,0.0172));
#1977=CARTESIAN_POINT('',(-0.02555,-0.016025,0.0172));
#1978=CARTESIAN_POINT('',(-0.02555,-0.016525,0.0172));
#1979=CARTESIAN_POINT('',(-0.01905,-0.016525,0.0172));
#1980=CARTESIAN_POINT('',(-0.01255,-0.016525,0.0172));
#1981=CARTESIAN_POINT('',(-0.01255,-0.016025,0.0172));
#1982=CARTESIAN_POINT('',(-0.01205,-0.016025,0.0172));
#1983=CARTESIAN_POINT('',(-0.01205,-0.009525,0.0172));
#1984=CARTESIAN_POINT('',(-0.01205,-0.003025,0.0172));
#1985=CARTESIAN_POINT('',(-0.01255,-0.003025,0.0172));
#1986=CARTESIAN_POINT('',(-0.01255,-0.002525,0.0172));
#1987=CARTESIAN_POINT('',(-0.01905,-0.002525,0.0172));
#1988=CARTESIAN_POINT('',(-0.02555,-0.002525,0.0172));
#1989=CARTESIAN_POINT('',(-0.02555,-0.003025,0.0172));
#1990=CARTESIAN_POINT('',(-0.007,-0.009525,0.0172));
#1991=CARTESIAN_POINT('',(-0.007,-0.003025,0.0172));
#1992=CARTESIAN_POINT('',(-0.007,-0.016025,0.0172));
#1993=CARTESIAN_POINT('',(-0.0065,-0.016025,0.0172));
#1994=CARTESIAN_POINT('',(-0.0065,-0.016525,0.0172));
#1995=CARTESIAN_POINT('',(1.7347234759768E-18,-0.016525,0.0172));
#1996=CARTESIAN_POINT('',(0.0065,-0.016525,0.0172));
#1997=CARTESIAN_POINT('',(0.0065,-0.016025,0.0172));
#1998=CARTESIAN_POINT('',(0.007,-0.016025,0.0172));
#1999=CARTESIAN_POINT('',(0.007,-0.009525,0.0172));
#2000=CARTESIAN_POINT('',(0.007,-0.003025,0.0172));
#2001=CARTESIAN_POINT('',(0.0065,-0.003025,0.0172));
#2002=CARTESIAN_POINT('',(0.0065,-0.002525,0.0172));
#2003=CARTESIAN_POINT('',(1.7347234759768E-18,-0.002525,0.0172));
#2004=CARTESIAN_POINT('',(-0.0065,-0.002525,0.0172));
#2005=CARTESIAN_POINT('',(-0.0065,-0.003025,0.0172));
#2006=CARTESIAN_POINT('',(0.01205,-0.009525,0.0172));
#2007=CARTESIAN_POINT('',(0.01205,-0.003025,0.0172));
#2008=CARTESIAN_POINT('',(0.01205,-0.016025,0.0172));
#2009=CARTESIAN_POINT('',(0.01255,-0.016025,0.0172));
#2010=CARTESIAN_POINT('',(0.01255,-0.016525,0.0172));
#2011=CARTESIAN_POINT('',(0.01905,-0.016525,0.0172));
#2012=CARTESIAN_POINT('',(0.02555,-0.016525,0.0172));
#2013=CARTESIAN_POINT('',(0.02555,-0.016025,0.0172));
#2014=CARTESIAN_POINT('',(0.02605,-0.016025,0.0172));
#2015=CARTESIAN_POINT('',(0.02605,-0.009525,0.0172));
#2016=CARTESIAN_POINT('',(0.02605,-0.003025,0.0172));
#2017=CARTESIAN_POINT('',(0.02555,-0.003025,0.0172));
#2018=CARTESIAN_POINT('',(0.02555,-0.002525,0.0172));
#2019=CARTESIAN_POINT('',(0.01905,-0.002525,0.0172));
#2020=CARTESIAN_POINT('',(0.01255,-0.002525,0.0172));
#2021=CARTESIAN_POINT('',(0.01255,-0.003025,0.0172));
#2022=CARTESIAN_POINT('',(0.0331168864023139,0.0241897818626596,0.0172));
#2023=CARTESIAN_POINT('',(-0.0331168864023139,-0.0241897818626596,0.0172));
#2024=CARTESIAN_POINT('',(0.0331168864023139,-0.0241897818626596,0.0172));
#2025=CARTESIAN_POINT('',(-0.0331168864023139,0.0241897818626596,0.0172));
#2026=MECHANICAL_DESIGN_GEOMETRIC_PRESENTATION_REPRESENTATION('',(#1211),
#2027);
#2027=(
GEOMETRIC_REPRESENTATION_CONTEXT(3)
GLOBAL_UNCERTAINTY_ASSIGNED_CONTEXT((#2028))
GLOBAL_UNIT_ASSIGNED_CONTEXT((#2031,#2030,#2029))
REPRESENTATION_CONTEXT('Lid','TOP_LEVEL_ASSEMBLY_PART')
);
#2028=UNCERTAINTY_MEASURE_WITH_UNIT(LENGTH_MEASURE(1.E-8),#2031,
'DISTANCE_ACCURACY_VALUE','Maximum Tolerance applied to model');
#2029=(
NAMED_UNIT(*)
SI_UNIT($,.STERADIAN.)
SOLID_ANGLE_UNIT()
);
#2030=(
NAMED_UNIT(*)
PLANE_ANGLE_UNIT()
SI_UNIT($,.RADIAN.)
);
#2031=(
LENGTH_UNIT()
NAMED_UNIT(*)
SI_UNIT($,.METRE.)
);
#2032=PRODUCT_DEFINITION_SHAPE('','',#2033);
#2033=PRODUCT_DEFINITION('','',#2035,#2034);
#2034=PRODUCT_DEFINITION_CONTEXT('',#2041,'design');
#2035=PRODUCT_DEFINITION_FORMATION_WITH_SPECIFIED_SOURCE('','',#2037,
 .NOT_KNOWN.);
#2036=PRODUCT_RELATED_PRODUCT_CATEGORY('','',(#2037));
#2037=PRODUCT('Lid','Lid','Lid',(#2039));
#2038=PRODUCT_CATEGORY('','');
#2039=PRODUCT_CONTEXT('',#2041,'mechanical');
#2040=APPLICATION_PROTOCOL_DEFINITION('international standard',
'ap242_managed_model_based_3d_engineering',2020,#2041);
#2041=APPLICATION_CONTEXT('managed model based 3d engineering');
ENDSEC;
END-ISO-10303-21;
